<svg width="190" height="150" viewBox="20 40 150 110" fill="none" xmlns="http://www.w3.org/2000/svg">
<path d="M72.9554 77.2801L114.985 69.8692L121.785 108.431L79.755 115.842L72.9554 77.2801Z" fill="url(#paint0_linear_549_2627)"/>
<path d="M88.5651 89.8016C90.1327 89.0414 91.1958 87.8539 91.7546 86.2393C92.3133 84.6246 92.2122 83.032 91.4512 81.4614C90.6901 79.8908 89.5074 78.8209 87.9029 78.2516C86.2984 77.6823 84.7108 77.7823 83.1401 78.5514C81.5695 79.3206 80.5078 80.5073 79.9551 82.1116C79.4024 83.716 79.5021 85.3093 80.2541 86.8917C81.006 88.4741 82.1903 89.5433 83.8068 90.0993C85.4233 90.6553 87.0094 90.5561 88.5651 89.8016ZM155.231 121.185C152.095 122.706 147.245 123.438 140.679 123.384C134.113 123.329 126.722 122.518 118.506 120.95C117.268 122.013 115.968 122.991 114.605 123.886C113.242 124.78 111.812 125.588 110.315 126.311C101.581 130.546 92.7261 131.093 83.7502 127.95C74.7744 124.807 68.1707 118.848 63.9393 110.073C63.2159 108.573 62.6046 107.019 62.1052 105.41C61.6058 103.802 61.1992 102.194 60.8852 100.588C53.5516 96.6491 47.286 92.6787 42.0886 88.677C36.8911 84.6754 33.5306 81.0987 32.0072 77.9471C31.0307 75.9221 30.8224 74.0575 31.3823 72.3535C31.9421 70.6494 33.1918 69.3253 35.1311 68.381C36.848 67.5484 39.1926 67.0128 42.165 66.7743C45.1373 66.5358 49.3281 66.5856 54.7373 66.9236C56.0717 67.0167 57.2064 67.601 58.1412 68.6764C59.0761 69.7518 59.4959 70.9585 59.4006 72.2966C59.3053 73.6347 58.7445 74.7637 57.718 75.6835C56.6915 76.6032 55.5082 77.0143 54.1679 76.9165C52.3518 76.7794 50.6272 76.7366 48.9943 76.7882C47.3613 76.8398 45.6356 76.8902 43.8171 76.9392C46.5351 79.1376 49.3109 81.2154 52.1447 83.1726C54.9784 85.1298 57.8852 87.0053 60.8649 88.7992C61.7485 83.3734 63.8318 78.43 67.1149 73.9691C70.3979 69.5081 74.6894 65.9924 79.9894 63.4221C88.7231 59.1864 97.6067 58.65 106.64 61.813C115.674 64.9759 122.304 70.9442 126.531 79.7178C129.099 85.0429 130.273 90.4885 130.054 96.0547C129.835 101.621 128.399 106.806 125.745 111.609C129.189 112.067 132.655 112.423 136.14 112.676C139.626 112.929 143.093 113.005 146.541 112.906C145.257 111.771 143.973 110.682 142.689 109.638C141.405 108.595 140.007 107.561 138.496 106.536C137.392 105.776 136.71 104.696 136.448 103.298C136.187 101.9 136.434 100.645 137.192 99.5337C137.949 98.4224 139.025 97.7395 140.42 97.4849C141.815 97.2303 143.063 97.4802 144.164 98.2346C148.872 101.504 152.244 104.103 154.279 106.033C156.315 107.962 157.748 109.788 158.578 111.51C159.627 113.685 159.817 115.607 159.148 117.275C158.479 118.944 157.173 120.247 155.231 121.185ZM109.527 104.622C110.796 104.006 111.652 103.058 112.095 101.777C112.539 100.496 112.452 99.2201 111.836 97.9495C111.22 96.6789 110.276 95.8187 109.005 95.3688C107.735 94.919 106.462 95.0032 105.187 95.6215C103.912 96.2399 103.057 97.1874 102.623 98.4641C102.189 99.7408 102.274 101.017 102.878 102.294C103.483 103.57 104.428 104.431 105.715 104.877C107.002 105.322 108.273 105.237 109.527 104.622ZM107.531 86.1562C108.501 85.6856 109.15 84.9766 109.478 84.0291C109.806 83.0817 109.734 82.1227 109.262 81.1521C108.791 80.1815 108.086 79.5295 107.148 79.196C106.209 78.8626 105.252 78.9326 104.276 79.4061C103.299 79.8796 102.652 80.588 102.333 81.5311C102.014 82.4742 102.084 83.4339 102.544 84.4103C103.004 85.3866 103.711 86.0394 104.666 86.3687C105.62 86.6979 106.575 86.6271 107.531 86.1562Z" fill="url(#paint1_linear_549_2627)"/>
<path d="M82.8125 110.607C81.9911 110.607 81.292 110.319 80.7151 109.742C80.1382 109.165 79.8498 108.466 79.8498 107.646V84.2345C79.8498 83.4156 80.1382 82.7171 80.7151 82.139C81.292 81.5621 81.9911 81.2737 82.8125 81.2737H106.222C107.041 81.2737 107.74 81.5621 108.318 82.139C108.895 82.7159 109.183 83.415 109.183 84.2363V95.1447C108.862 95.0335 108.554 94.943 108.259 94.8733C107.966 94.8049 107.663 94.7365 107.35 94.668V84.2363C107.35 83.954 107.232 83.6949 106.998 83.459C106.763 83.2231 106.504 83.1058 106.22 83.107H82.8125C82.5301 83.107 82.271 83.2243 82.0351 83.459C81.7992 83.6937 81.6819 83.9528 81.6831 84.2363V107.646C81.6831 107.927 81.8005 108.186 82.0351 108.422C82.2698 108.658 82.5283 108.775 82.8106 108.774H93.1983C93.2423 109.116 93.2991 109.434 93.3688 109.729C93.4385 110.022 93.5283 110.315 93.6383 110.607H82.8125ZM81.6831 106.94V108.774V83.107V94.668V94.5305V106.94ZM86.2665 103.769H93.5265C93.5937 103.455 93.6853 103.151 93.8015 102.858L94.1681 101.934H86.2665V103.769ZM86.2665 96.857H98.3298C98.9323 96.4341 99.5257 96.076 100.11 95.7827C100.694 95.4881 101.321 95.2571 101.991 95.0897V95.0237H86.2665V96.857ZM86.2665 89.9453H102.766V88.112H86.2665V89.9453ZM105.516 114.488C103.474 114.488 101.742 113.776 100.319 112.352C98.8951 110.928 98.1831 109.195 98.1831 107.153C98.1831 105.111 98.8951 103.378 100.319 101.954C101.743 100.53 103.475 99.8185 105.516 99.8197C107.558 99.8209 109.291 100.532 110.716 101.954C112.141 103.375 112.852 105.108 112.85 107.153C112.85 109.194 112.138 110.927 110.716 112.351C109.291 113.774 107.558 114.486 105.516 114.486M104.812 112.44H106.222V107.857H110.806V106.445H106.222V101.862H104.811V106.445H100.227V107.857H104.811L104.812 112.44Z" fill="white"/>
<defs>
<linearGradient id="paint0_linear_549_2627" x1="115.412" y1="69.2566" x2="45.9307" y2="140.815" gradientUnits="userSpaceOnUse">
<stop stop-color="#8347E7"/>
<stop offset="1" stop-color="#EF89F6"/>
</linearGradient>
<linearGradient id="paint1_linear_549_2627" x1="115.412" y1="69.2566" x2="45.9307" y2="140.815" gradientUnits="userSpaceOnUse">
<stop stop-color="#8347E7"/>
<stop offset="1" stop-color="#EF89F6"/>
</linearGradient>
</defs>
</svg>
