<svg width="190" height="150" viewBox="20 40 150 110"  fill="none" xmlns="http://www.w3.org/2000/svg">
<path d="M68.591 83.5761L107.27 65.5396L123.819 101.028L85.1396 119.064L68.591 83.5761Z" fill="url(#paint0_linear_553_2661)"/>
<path d="M86.9096 91.6308C88.227 90.4908 88.9466 89.0686 89.0684 87.3643C89.1902 85.6601 88.6803 84.1479 87.5387 82.8278C86.3971 81.5077 84.9778 80.7803 83.2806 80.6457C81.5835 80.5112 80.0758 81.0186 78.7578 82.168C77.4397 83.3175 76.7213 84.7386 76.6027 86.4313C76.4841 88.124 76.9927 89.6373 78.1286 90.9711C79.2645 92.3049 80.6852 93.0312 82.3905 93.1499C84.0959 93.2686 85.6022 92.7622 86.9096 91.6308ZM159.426 104.691C156.791 106.971 152.296 108.934 145.94 110.581C139.583 112.227 132.234 113.356 123.892 113.969C122.972 115.316 121.969 116.597 120.884 117.814C119.799 119.03 118.627 120.181 117.367 121.267C110.028 127.619 101.616 130.438 92.1324 129.726C82.649 129.013 74.728 124.966 68.3696 117.585C67.2827 116.324 66.2899 114.981 65.3911 113.556C64.4924 112.131 63.6836 110.684 62.9647 109.214C54.8614 107.307 47.7817 105.094 41.7257 102.574C35.6696 100.053 31.4979 97.4684 29.2107 94.8185C27.7434 93.1152 27.0596 91.3681 27.1594 89.5772C27.2591 87.7863 28.1234 86.1838 29.7523 84.7698C31.1952 83.5212 33.3213 82.397 36.1307 81.3974C38.94 80.3977 43.0009 79.3611 48.3132 78.2876C49.6263 78.0322 50.8735 78.3029 52.0548 79.0997C53.2362 79.8965 53.954 80.9535 54.2083 82.2706C54.4625 83.5878 54.213 84.8234 53.4596 85.9775C52.7061 87.1316 51.6695 87.8349 50.3496 88.0874C48.5598 88.425 46.883 88.83 45.319 89.3025C43.755 89.775 42.1011 90.2703 40.3574 90.7883C43.5517 92.2084 46.7707 93.4969 50.0145 94.654C53.2582 95.811 56.5513 96.8703 59.8938 97.8319C59.343 92.3623 60.0759 87.0481 62.0925 81.8895C64.1091 76.7308 67.3445 72.2242 71.7986 68.3697C79.1385 62.0179 87.5806 59.2006 97.1249 59.9177C106.669 60.6348 114.618 64.6836 120.972 72.0643C124.831 76.5433 127.374 81.4995 128.603 86.9327C129.832 92.3659 129.787 97.7458 128.467 103.073C131.913 102.623 135.351 102.07 138.784 101.412C142.216 100.754 145.585 99.9311 148.89 98.9428C147.356 98.1784 145.833 97.4587 144.323 96.7835C142.813 96.1084 141.195 95.4712 139.47 94.8719C138.207 94.423 137.269 93.5571 136.654 92.2743C136.04 90.9914 135.954 89.7153 136.398 88.4458C136.842 87.1764 137.705 86.2382 138.986 85.6312C140.268 85.0242 141.538 84.9426 142.796 85.3864C148.19 87.3257 152.12 88.9639 154.586 90.3009C157.051 91.6379 158.908 93.0306 160.156 94.479C161.732 96.3085 162.413 98.1155 162.198 99.9002C161.983 101.685 161.059 103.282 159.426 104.691ZM110.993 100.521C112.059 99.5977 112.641 98.4601 112.738 97.108C112.834 95.7558 112.421 94.5459 111.496 93.4781C110.572 92.4104 109.438 91.8237 108.094 91.718C106.751 91.6123 105.543 92.0231 104.472 92.9503C103.4 93.8776 102.82 95.014 102.731 96.3597C102.642 97.7053 103.054 98.9163 103.968 99.9928C104.882 101.069 106.019 101.656 107.377 101.753C108.736 101.851 109.941 101.44 110.993 100.521ZM104.285 83.201C105.101 82.4952 105.545 81.6424 105.616 80.6423C105.687 79.6423 105.37 78.7346 104.663 77.9192C103.956 77.1037 103.106 76.6564 102.114 76.5771C101.121 76.4978 100.215 76.8132 99.3944 77.5233C98.5738 78.2334 98.1316 79.0852 98.0676 80.0787C98.0037 81.0722 98.3201 81.981 99.0169 82.8051C99.7137 83.6293 100.566 84.0768 101.573 84.1477C102.58 84.2187 103.484 83.9031 104.285 83.201Z" fill="url(#paint1_linear_553_2661)"/>
<path d="M94.9304 82.7327C94.1347 82.7327 93.3717 83.0487 92.8091 83.6113C92.2465 84.174 91.9304 84.937 91.9304 85.7327C91.9304 86.5283 92.2465 87.2914 92.8091 87.854C93.3717 88.4166 94.1347 88.7327 94.9304 88.7327C95.726 88.7327 96.4891 88.4166 97.0517 87.854C97.6143 87.2914 97.9304 86.5283 97.9304 85.7327C97.9304 84.937 97.6143 84.174 97.0517 83.6113C96.4891 83.0487 95.726 82.7327 94.9304 82.7327ZM89.9304 85.7327C89.9304 84.4066 90.4572 83.1348 91.3949 82.1971C92.3325 81.2595 93.6043 80.7327 94.9304 80.7327C96.2565 80.7327 97.5282 81.2595 98.4659 82.1971C99.4036 83.1348 99.9304 84.4066 99.9304 85.7327C99.9304 87.0587 99.4036 88.3305 98.4659 89.2682C97.5282 90.2059 96.2565 90.7327 94.9304 90.7327C93.6043 90.7327 92.3325 90.2059 91.3949 89.2682C90.4572 88.3305 89.9304 87.0587 89.9304 85.7327ZM105.93 84.7327C105.4 84.7327 104.891 84.9434 104.516 85.3185C104.141 85.6935 103.93 86.2022 103.93 86.7327C103.93 87.2631 104.141 87.7718 104.516 88.1469C104.891 88.522 105.4 88.7327 105.93 88.7327C106.461 88.7327 106.97 88.522 107.345 88.1469C107.72 87.7718 107.93 87.2631 107.93 86.7327C107.93 86.2022 107.72 85.6935 107.345 85.3185C106.97 84.9434 106.461 84.7327 105.93 84.7327ZM101.93 86.7327C101.93 85.6718 102.352 84.6544 103.102 83.9042C103.852 83.1541 104.87 82.7327 105.93 82.7327C106.991 82.7327 108.009 83.1541 108.759 83.9042C109.509 84.6544 109.93 85.6718 109.93 86.7327C109.93 87.7935 109.509 88.8109 108.759 89.5611C108.009 90.3112 106.991 90.7327 105.93 90.7327C104.87 90.7327 103.852 90.3112 103.102 89.5611C102.352 88.8109 101.93 87.7935 101.93 86.7327ZM81.9304 86.7327C81.9304 86.2022 82.1411 85.6935 82.5162 85.3185C82.8912 84.9434 83.4 84.7327 83.9304 84.7327C84.4608 84.7327 84.9695 84.9434 85.3446 85.3185C85.7197 85.6935 85.9304 86.2022 85.9304 86.7327C85.9304 87.2631 85.7197 87.7718 85.3446 88.1469C84.9695 88.522 84.4608 88.7327 83.9304 88.7327C83.4 88.7327 82.8912 88.522 82.5162 88.1469C82.1411 87.7718 81.9304 87.2631 81.9304 86.7327ZM83.9304 82.7327C82.8695 82.7327 81.8521 83.1541 81.102 83.9042C80.3518 84.6544 79.9304 85.6718 79.9304 86.7327C79.9304 87.7935 80.3518 88.8109 81.102 89.5611C81.8521 90.3112 82.8695 90.7327 83.9304 90.7327C84.9913 90.7327 86.0087 90.3112 86.7588 89.5611C87.509 88.8109 87.9304 87.7935 87.9304 86.7327C87.9304 85.6718 87.509 84.6544 86.7588 83.9042C86.0087 83.1541 84.9913 82.7327 83.9304 82.7327ZM85.1304 106.729L84.9304 106.733C83.8695 106.733 82.8521 106.311 82.102 105.561C81.3518 104.811 80.9304 103.794 80.9304 102.733V95.2327C80.9304 95.1001 80.9831 94.9729 81.0768 94.8791C81.1706 94.7853 81.2978 94.7327 81.4304 94.7327H84.9584C85.0384 93.9987 85.2984 93.3167 85.6884 92.7327H81.4304C80.0504 92.7327 78.9304 93.8527 78.9304 95.2327V102.733C78.9303 103.589 79.1135 104.435 79.4676 105.215C79.8217 105.994 80.3386 106.689 80.9835 107.252C81.6284 107.816 82.3864 108.234 83.2065 108.48C84.0267 108.726 84.8899 108.794 85.7384 108.679C85.4697 108.051 85.266 107.398 85.1304 106.729ZM104.122 108.679C104.386 108.715 104.656 108.733 104.93 108.733C106.522 108.733 108.048 108.101 109.173 106.975C110.298 105.85 110.93 104.324 110.93 102.733V95.2327C110.93 93.8527 109.81 92.7327 108.43 92.7327H104.172C104.564 93.3167 104.822 93.9987 104.902 94.7327H108.43C108.563 94.7327 108.69 94.7853 108.784 94.8791C108.878 94.9729 108.93 95.1001 108.93 95.2327V102.733C108.931 103.275 108.82 103.811 108.607 104.31C108.393 104.808 108.08 105.258 107.688 105.632C107.295 106.005 106.83 106.295 106.322 106.484C105.813 106.673 105.272 106.756 104.73 106.729C104.595 107.398 104.391 108.051 104.122 108.679ZM89.4304 92.7327C88.0504 92.7327 86.9304 93.8527 86.9304 95.2327V104.733C86.9304 106.854 87.7732 108.889 89.2735 110.39C90.7738 111.89 92.8087 112.733 94.9304 112.733C97.0521 112.733 99.087 111.89 100.587 110.39C102.088 108.889 102.93 106.854 102.93 104.733V95.2327C102.93 93.8527 101.81 92.7327 100.43 92.7327H89.4304ZM88.9304 95.2327C88.9304 95.1001 88.9831 94.9729 89.0768 94.8791C89.1706 94.7853 89.2978 94.7327 89.4304 94.7327H100.43C100.563 94.7327 100.69 94.7853 100.784 94.8791C100.878 94.9729 100.93 95.1001 100.93 95.2327V104.733C100.93 106.324 100.298 107.85 99.173 108.975C98.0478 110.101 96.5217 110.733 94.9304 110.733C93.3391 110.733 91.813 110.101 90.6877 108.975C89.5625 107.85 88.9304 106.324 88.9304 104.733V95.2327Z" fill="white"/>
<defs>
<linearGradient id="paint0_linear_553_2661" x1="107.524" y1="64.8374" x2="58.9313" y2="151.941" gradientUnits="userSpaceOnUse">
<stop stop-color="#8347E7"/>
<stop offset="1" stop-color="#EF89F6"/>
</linearGradient>
<linearGradient id="paint1_linear_553_2661" x1="107.524" y1="64.8374" x2="58.9313" y2="151.941" gradientUnits="userSpaceOnUse">
<stop stop-color="#8347E7"/>
<stop offset="1" stop-color="#EF89F6"/>
</linearGradient>
</defs>
</svg>
