<svg width="190" height="150" viewBox="20 40 150 110"  fill="none" xmlns="http://www.w3.org/2000/svg">
<path d="M66.4559 90.7733L99.1491 63.3404L124.319 93.3365L91.6256 120.769L66.4559 90.7733Z" fill="url(#paint0_linear_549_2606)"/>
<path d="M86.235 93.8124C87.2125 92.3702 87.5395 90.8102 87.216 89.1325C86.8926 87.4548 86.0087 86.1261 84.5643 85.1465C83.12 84.1668 81.5607 83.8316 79.8865 84.1409C78.2124 84.4501 76.8875 85.3304 75.9118 86.7819C74.9361 88.2333 74.61 89.7919 74.9336 91.4576C75.2571 93.1234 76.1401 94.4534 77.5825 95.4478C79.0249 96.4422 80.5851 96.776 82.2631 96.4493C83.941 96.1226 85.265 95.2436 86.235 93.8124ZM159.661 87.6584C157.706 90.5428 153.872 93.6028 148.158 96.8383C142.445 100.074 135.638 103.067 127.739 105.817C127.199 107.357 126.562 108.854 125.828 110.31C125.095 111.766 124.261 113.181 123.325 114.555C117.879 122.59 110.484 127.491 101.14 129.257C91.7948 131.024 83.0964 129.165 75.0443 123.681C73.6678 122.744 72.3612 121.703 71.1244 120.56C69.8876 119.416 68.7318 118.228 67.6569 116.994C59.3362 117.249 51.9248 116.943 45.4229 116.077C38.9209 115.21 34.2223 113.793 31.3272 111.825C29.469 110.56 28.3564 109.049 27.9892 107.293C27.622 105.538 28.0421 103.766 29.2496 101.979C30.3201 100.399 32.0828 98.7629 34.5377 97.0702C36.9926 95.3775 40.6468 93.3252 45.5003 90.9133C46.7025 90.3268 47.9773 90.2655 49.3246 90.7293C50.6719 91.1932 51.6388 92.0284 52.2253 93.2348C52.8119 94.4413 52.8906 95.6994 52.4616 97.0092C52.0325 98.319 51.2132 99.2666 50.0037 99.8521C48.3623 100.641 46.8474 101.467 45.459 102.328C44.0706 103.189 42.6012 104.095 41.0509 105.047C44.504 105.592 47.9468 106.004 51.3795 106.282C54.8122 106.56 58.2673 106.731 61.7447 106.794C59.7971 101.654 59.1296 96.3309 59.7423 90.8261C60.355 85.3212 62.3137 80.1308 65.6185 75.2549C71.0643 67.2198 78.4895 62.3135 87.8942 60.5359C97.299 58.7583 106.025 60.6119 114.073 66.0965C118.959 69.4243 122.699 73.5532 125.292 78.4832C127.885 83.4132 129.234 88.6216 129.338 94.1084C132.55 92.7827 135.728 91.358 138.873 89.8343C142.018 88.3105 145.059 86.6436 147.996 84.8334C146.316 84.4923 144.659 84.1911 143.026 83.9298C141.392 83.6685 139.665 83.4717 137.843 83.3393C136.508 83.2326 135.377 82.6391 134.451 81.559C133.525 80.479 133.113 79.2684 133.213 77.9273C133.313 76.5863 133.904 75.4568 134.985 74.5387C136.065 73.6207 137.271 73.2132 138.601 73.3162C144.313 73.7934 148.533 74.3586 151.261 75.0119C153.989 75.6651 156.143 76.5298 157.723 77.606C159.719 78.9652 160.844 80.5345 161.098 82.3139C161.353 84.0932 160.874 85.8747 159.661 87.6584ZM111.799 96.166C112.59 94.9985 112.857 93.7492 112.601 92.4181C112.344 91.087 111.631 90.0254 110.462 89.2332C109.293 88.4411 108.046 88.1678 106.721 88.4135C105.395 88.6592 104.335 89.3686 103.54 90.5416C102.745 91.7145 102.479 92.9625 102.741 94.2853C103.003 95.6082 103.715 96.6711 104.877 97.4743C106.038 98.2775 107.288 98.5503 108.625 98.2927C109.962 98.0351 111.02 97.3262 111.799 96.166ZM100.837 81.1726C101.442 80.2798 101.65 79.3412 101.46 78.3567C101.27 77.3723 100.728 76.5777 99.8346 75.973C98.9408 75.3683 98.0043 75.1561 97.0251 75.3364C96.0459 75.5167 95.2519 76.056 94.6431 76.9543C94.0343 77.8525 93.8276 78.7898 94.0229 79.766C94.2183 80.7422 94.7592 81.5382 95.6455 82.1538C96.5319 82.7695 97.4707 82.9813 98.4619 82.7891C99.4532 82.597 100.245 82.0581 100.837 81.1726Z" fill="url(#paint1_linear_549_2606)"/>
<path fill-rule="evenodd" clip-rule="evenodd" d="M84.7921 107.541L87.2921 104.941V108.633L84.4171 111.597L82.2921 110.687V104.186H78.5421L77.2921 102.886V82.0838L78.5421 80.7837H108.542L109.792 82.0838V93.7852H107.292V83.384H79.7921V101.586H83.5421L84.7921 102.886V107.541ZM100.517 111.987L105.167 116.798L107.292 115.888V111.987H111.042L112.292 110.687V97.6857L111.042 96.3855H91.0421L89.7921 97.6857V110.687L91.0421 111.987H100.517ZM101.042 109.387H92.2921V98.9859H109.792V109.387H106.042L104.792 110.687V112.741L101.917 109.777L101.042 109.387Z" fill="white"/>
<defs>
<linearGradient id="paint0_linear_549_2606" x1="99.2125" y1="62.5964" x2="74.8194" y2="159.309" gradientUnits="userSpaceOnUse">
<stop stop-color="#8347E7"/>
<stop offset="1" stop-color="#EF89F6"/>
</linearGradient>
<linearGradient id="paint1_linear_549_2606" x1="99.2125" y1="62.5964" x2="74.8194" y2="159.309" gradientUnits="userSpaceOnUse">
<stop stop-color="#8347E7"/>
<stop offset="1" stop-color="#EF89F6"/>
</linearGradient>
</defs>
</svg>
