<svg width="163" height="52" viewBox="0 0 163 52" fill="none" xmlns="http://www.w3.org/2000/svg">
<path d="M79.2089 12.3645C101.056 9.03956 121.061 7.57486 135.743 7.89324C143.087 8.0525 149.084 8.65741 153.308 9.69184C155.421 10.2094 157.072 10.8305 158.222 11.5438C159.375 12.2586 159.98 13.0369 160.106 13.858C160.231 14.6793 159.884 15.6031 158.996 16.6288C158.11 17.652 156.718 18.7352 154.855 19.858C151.13 22.1022 145.585 24.4637 138.621 26.8005C124.698 31.4723 105.163 36.0266 83.3162 39.3516C61.4692 42.6766 41.4628 44.1404 26.7807 43.822C19.4371 43.6627 13.4404 43.0578 9.2164 42.0234C7.10319 41.5058 5.45238 40.8857 4.30187 40.1724C3.14869 39.4575 2.5434 38.6785 2.4184 37.8572C2.29361 37.0361 2.63987 36.1129 3.52796 35.0874C4.41424 34.0642 5.80546 32.9801 7.66917 31.8573C11.3941 29.613 16.9393 27.2515 23.9031 24.9147C37.8257 20.2429 57.362 15.6895 79.2089 12.3645Z" stroke="#D5C4F9" stroke-width="0.64"/>
<circle cx="26.24" cy="44.4801" r="3.2" fill="#EF89F6"/>
<circle cx="144.48" cy="8.48004" r="2.4" fill="#EF89F6"/>
<path d="M14.7008 33.4401V18.9249H18.128L18.416 21.2865C18.8576 20.4801 19.4816 19.8273 20.288 19.3281C21.1136 18.8289 22.0928 18.5793 23.2256 18.5793C24.4352 18.5793 25.4528 18.8289 26.2784 19.3281C27.104 19.8273 27.728 20.5569 28.1504 21.5169C28.592 22.4769 28.8128 23.6577 28.8128 25.0593V33.4401H24.9536V25.4337C24.9536 24.2817 24.704 23.3985 24.2048 22.7841C23.7248 22.1697 22.976 21.8625 21.9584 21.8625C21.3056 21.8625 20.72 22.0161 20.2016 22.3233C19.7024 22.6305 19.3088 23.0721 19.0208 23.6481C18.7328 24.2049 18.5888 24.8865 18.5888 25.6929V33.4401H14.7008ZM39.3302 33.7857C37.9478 33.7857 36.6998 33.4689 35.5862 32.8353C34.4918 32.1825 33.6182 31.2897 32.9654 30.1569C32.3318 29.0049 32.015 27.6897 32.015 26.2113C32.015 24.6945 32.3318 23.3697 32.9654 22.2369C33.6182 21.0849 34.5014 20.1921 35.615 19.5585C36.7286 18.9057 37.9766 18.5793 39.359 18.5793C40.7606 18.5793 42.0086 18.9057 43.103 19.5585C44.2166 20.1921 45.0902 21.0849 45.7238 22.2369C46.3766 23.3697 46.703 24.6849 46.703 26.1825C46.703 27.6801 46.3766 29.0049 45.7238 30.1569C45.0902 31.2897 44.2166 32.1825 43.103 32.8353C41.9894 33.4689 40.7318 33.7857 39.3302 33.7857ZM39.3302 30.4161C39.983 30.4161 40.559 30.2625 41.0582 29.9553C41.5766 29.6481 41.9798 29.1777 42.2678 28.5441C42.575 27.9105 42.7286 27.1233 42.7286 26.1825C42.7286 25.2417 42.575 24.4641 42.2678 23.8497C41.9798 23.2161 41.5766 22.7457 41.0582 22.4385C40.559 22.1121 39.9926 21.9489 39.359 21.9489C38.7446 21.9489 38.1782 22.1121 37.6598 22.4385C37.1414 22.7457 36.7286 23.2161 36.4214 23.8497C36.1334 24.4641 35.9894 25.2417 35.9894 26.1825C35.9894 27.1233 36.1334 27.9105 36.4214 28.5441C36.7286 29.1777 37.1318 29.6481 37.631 29.9553C38.1494 30.2625 38.7158 30.4161 39.3302 30.4161ZM56.029 33.4401C55.0114 33.4401 54.1186 33.2865 53.3506 32.9793C52.6018 32.6529 52.0162 32.1249 51.5938 31.3953C51.1714 30.6465 50.9602 29.6289 50.9602 28.3425V22.1793H48.4834V18.9249H50.9602L51.3922 14.9793H54.8482V18.9249H58.6786V22.1793H54.8482V28.4001C54.8482 29.0529 54.9922 29.5041 55.2802 29.7537C55.5682 30.0033 56.0578 30.1281 56.749 30.1281H58.6498V33.4401H56.029ZM68.5548 33.7857C67.0955 33.7857 65.7995 33.4785 64.6667 32.8641C63.5531 32.2305 62.6795 31.3569 62.0459 30.2433C61.4315 29.1105 61.1243 27.8049 61.1243 26.3265C61.1243 24.8097 61.4315 23.4753 62.0459 22.3233C62.6795 21.1521 63.5531 20.2401 64.6667 19.5873C65.7803 18.9153 67.0763 18.5793 68.5548 18.5793C69.9948 18.5793 71.2523 18.8961 72.3275 19.5297C73.4028 20.1633 74.238 21.0177 74.8332 22.0929C75.4284 23.1681 75.726 24.3873 75.726 25.7505C75.726 25.9425 75.726 26.1633 75.726 26.4129C75.726 26.6433 75.7068 26.8833 75.6683 27.1329H63.8891V24.7713H71.8092C71.7516 23.8305 71.4155 23.0913 70.8011 22.5537C70.2059 22.0161 69.4572 21.7473 68.5548 21.7473C67.902 21.7473 67.2971 21.9009 66.7403 22.2081C66.1835 22.4961 65.7419 22.9473 65.4155 23.5617C65.1083 24.1761 64.9547 24.9537 64.9547 25.8945V26.7297C64.9547 27.5169 65.0987 28.2081 65.3867 28.8033C65.6939 29.3793 66.1163 29.8305 66.6539 30.1569C67.1915 30.4641 67.8155 30.6177 68.5259 30.6177C69.2363 30.6177 69.8219 30.4641 70.2828 30.1569C70.7627 29.8497 71.1179 29.4561 71.3484 28.9761H75.3228C75.054 29.8785 74.6028 30.6945 73.9692 31.4241C73.3356 32.1537 72.558 32.7297 71.6364 33.1521C70.7147 33.5745 69.6875 33.7857 68.5548 33.7857Z" fill="url(#paint0_linear_500_4355)"/>
<path d="M85.7646 33.7857C84.3822 33.7857 83.1342 33.4689 82.0206 32.8353C80.9262 32.1825 80.0526 31.2897 79.3998 30.1569C78.7662 29.0049 78.4494 27.6897 78.4494 26.2113C78.4494 24.6945 78.7662 23.3697 79.3998 22.2369C80.0526 21.0849 80.9358 20.1921 82.0494 19.5585C83.163 18.9057 84.411 18.5793 85.7934 18.5793C87.195 18.5793 88.443 18.9057 89.5374 19.5585C90.651 20.1921 91.5246 21.0849 92.1582 22.2369C92.811 23.3697 93.1374 24.6849 93.1374 26.1825C93.1374 27.6801 92.811 29.0049 92.1582 30.1569C91.5246 31.2897 90.651 32.1825 89.5374 32.8353C88.4238 33.4689 87.1662 33.7857 85.7646 33.7857ZM85.7646 30.4161C86.4174 30.4161 86.9934 30.2625 87.4926 29.9553C88.011 29.6481 88.4142 29.1777 88.7022 28.5441C89.0094 27.9105 89.163 27.1233 89.163 26.1825C89.163 25.2417 89.0094 24.4641 88.7022 23.8497C88.4142 23.2161 88.011 22.7457 87.4926 22.4385C86.9934 22.1121 86.427 21.9489 85.7934 21.9489C85.179 21.9489 84.6126 22.1121 84.0942 22.4385C83.5758 22.7457 83.163 23.2161 82.8558 23.8497C82.5678 24.4641 82.4238 25.2417 82.4238 26.1825C82.4238 27.1233 82.5678 27.9105 82.8558 28.5441C83.163 29.1777 83.5662 29.6481 84.0654 29.9553C84.5838 30.2625 85.1502 30.4161 85.7646 30.4161ZM96.4883 33.4401V18.9249H99.9443L100.319 21.6033C100.664 20.9697 101.096 20.4321 101.615 19.9905C102.152 19.5489 102.757 19.2033 103.429 18.9537C104.12 18.7041 104.879 18.5793 105.704 18.5793V22.6977H104.379C103.803 22.6977 103.266 22.7649 102.767 22.8993C102.287 23.0337 101.864 23.2545 101.499 23.5617C101.135 23.8497 100.856 24.2529 100.664 24.7713C100.472 25.2897 100.376 25.9425 100.376 26.7297V33.4401H96.4883ZM116.855 33.7857C116.106 33.7857 115.434 33.6897 114.839 33.4977C114.263 33.3057 113.745 33.0465 113.284 32.7201C112.842 32.3745 112.468 31.9905 112.161 31.5681L111.729 33.4401H108.273V12.7041H112.161V20.9409C112.621 20.2689 113.226 19.7121 113.975 19.2705C114.743 18.8097 115.693 18.5793 116.826 18.5793C118.17 18.5793 119.361 18.9153 120.397 19.5873C121.453 20.2401 122.279 21.1425 122.874 22.2945C123.489 23.4273 123.796 24.7329 123.796 26.2113C123.796 27.6513 123.489 28.9473 122.874 30.0993C122.279 31.2513 121.463 32.1537 120.426 32.8065C119.389 33.4593 118.199 33.7857 116.855 33.7857ZM115.933 30.3873C116.701 30.3873 117.373 30.2145 117.949 29.8689C118.545 29.5041 119.005 29.0145 119.332 28.4001C119.658 27.7665 119.821 27.0369 119.821 26.2113C119.821 25.3857 119.658 24.6561 119.332 24.0225C119.005 23.3697 118.545 22.8705 117.949 22.5249C117.373 22.1601 116.701 21.9777 115.933 21.9777C115.185 21.9777 114.513 22.1601 113.917 22.5249C113.341 22.8705 112.881 23.3601 112.535 23.9937C112.209 24.6273 112.045 25.3569 112.045 26.1825C112.045 27.0081 112.209 27.7473 112.535 28.4001C112.881 29.0337 113.341 29.5233 113.917 29.8689C114.513 30.2145 115.185 30.3873 115.933 30.3873ZM127.231 33.4401V18.9249H131.119V33.4401H127.231ZM129.189 16.9377C128.498 16.9377 127.922 16.7361 127.461 16.3329C127.02 15.9105 126.799 15.3825 126.799 14.7489C126.799 14.1153 127.02 13.5969 127.461 13.1937C127.922 12.7713 128.498 12.5601 129.189 12.5601C129.9 12.5601 130.476 12.7713 130.917 13.1937C131.378 13.5969 131.609 14.1153 131.609 14.7489C131.609 15.3825 131.378 15.9105 130.917 16.3329C130.476 16.7361 129.9 16.9377 129.189 16.9377ZM141.585 33.4401C140.568 33.4401 139.675 33.2865 138.907 32.9793C138.158 32.6529 137.572 32.1249 137.15 31.3953C136.728 30.6465 136.516 29.6289 136.516 28.3425V22.1793H134.04V18.9249H136.516L136.948 14.9793H140.404V18.9249H144.235V22.1793H140.404V28.4001C140.404 29.0529 140.548 29.5041 140.836 29.7537C141.124 30.0033 141.614 30.1281 142.305 30.1281H144.206V33.4401H141.585Z" fill="#483183"/>
<defs>
<linearGradient id="paint0_linear_500_4355" x1="88.3256" y1="2.77731" x2="9.71158" y2="40.4097" gradientUnits="userSpaceOnUse">
<stop stop-color="#F683E2"/>
<stop offset="1" stop-color="#6C46C3"/>
<stop offset="1" stop-color="#2D3BD3"/>
</linearGradient>
</defs>
</svg>
