<svg width="163" height="52" viewBox="0 0 163 52" fill="none" xmlns="http://www.w3.org/2000/svg">
<path d="M79.2089 12.3645C101.056 9.03959 121.061 7.5749 135.743 7.89327C143.087 8.05254 149.084 8.65744 153.308 9.69188C155.421 10.2095 157.072 10.8305 158.222 11.5438C159.375 12.2586 159.98 13.037 160.106 13.8581C160.231 14.6793 159.884 15.6031 158.996 16.6288C158.11 17.652 156.718 18.7352 154.855 19.858C151.13 22.1022 145.585 24.4638 138.621 26.8005C124.698 31.4724 105.163 36.0266 83.3162 39.3516C61.4692 42.6766 41.4628 44.1404 26.7807 43.822C19.4371 43.6628 13.4404 43.0579 9.21641 42.0234C7.1032 41.5059 5.45238 40.8857 4.30188 40.1725C3.1487 39.4575 2.5434 38.6785 2.41841 37.8572C2.29361 37.0361 2.63988 36.1129 3.52797 35.0875C4.41424 34.0642 5.80547 32.9801 7.66917 31.8573C11.3941 29.6131 16.9394 27.2515 23.9031 24.9148C37.8257 20.2429 57.362 15.6895 79.2089 12.3645Z" stroke="#D5C4F9" stroke-width="0.64"/>
<circle cx="26.24" cy="44.48" r="3.2" fill="#EF89F6"/>
<circle cx="144.48" cy="8.48008" r="2.4" fill="#EF89F6"/>
<path d="M14.7008 33.4402V18.925H18.128L18.416 21.2866C18.8576 20.4802 19.4816 19.8274 20.288 19.3282C21.1136 18.829 22.0928 18.5794 23.2256 18.5794C24.4352 18.5794 25.4528 18.829 26.2784 19.3282C27.104 19.8274 27.728 20.557 28.1504 21.517C28.592 22.477 28.8128 23.6578 28.8128 25.0594V33.4402H24.9536V25.4338C24.9536 24.2818 24.704 23.3986 24.2048 22.7842C23.7248 22.1698 22.976 21.8626 21.9584 21.8626C21.3056 21.8626 20.72 22.0162 20.2016 22.3234C19.7024 22.6306 19.3088 23.0722 19.0208 23.6482C18.7328 24.205 18.5888 24.8866 18.5888 25.693V33.4402H14.7008ZM39.3302 33.7858C37.9478 33.7858 36.6998 33.469 35.5862 32.8354C34.4918 32.1826 33.6182 31.2898 32.9654 30.157C32.3318 29.005 32.015 27.6898 32.015 26.2114C32.015 24.6946 32.3318 23.3698 32.9654 22.237C33.6182 21.085 34.5014 20.1922 35.615 19.5586C36.7286 18.9058 37.9766 18.5794 39.359 18.5794C40.7606 18.5794 42.0086 18.9058 43.103 19.5586C44.2166 20.1922 45.0902 21.085 45.7238 22.237C46.3766 23.3698 46.703 24.685 46.703 26.1826C46.703 27.6802 46.3766 29.005 45.7238 30.157C45.0902 31.2898 44.2166 32.1826 43.103 32.8354C41.9894 33.469 40.7318 33.7858 39.3302 33.7858ZM39.3302 30.4162C39.983 30.4162 40.559 30.2626 41.0582 29.9554C41.5766 29.6482 41.9798 29.1778 42.2678 28.5442C42.575 27.9106 42.7286 27.1234 42.7286 26.1826C42.7286 25.2418 42.575 24.4642 42.2678 23.8498C41.9798 23.2162 41.5766 22.7458 41.0582 22.4386C40.559 22.1122 39.9926 21.949 39.359 21.949C38.7446 21.949 38.1782 22.1122 37.6598 22.4386C37.1414 22.7458 36.7286 23.2162 36.4214 23.8498C36.1334 24.4642 35.9894 25.2418 35.9894 26.1826C35.9894 27.1234 36.1334 27.9106 36.4214 28.5442C36.7286 29.1778 37.1318 29.6482 37.631 29.9554C38.1494 30.2626 38.7158 30.4162 39.3302 30.4162ZM56.029 33.4402C55.0114 33.4402 54.1186 33.2866 53.3506 32.9794C52.6018 32.653 52.0162 32.125 51.5938 31.3954C51.1714 30.6466 50.9602 29.629 50.9602 28.3426V22.1794H48.4834V18.925H50.9602L51.3922 14.9794H54.8482V18.925H58.6786V22.1794H54.8482V28.4002C54.8482 29.053 54.9922 29.5042 55.2802 29.7538C55.5682 30.0034 56.0578 30.1282 56.749 30.1282H58.6498V33.4402H56.029ZM68.5548 33.7858C67.0955 33.7858 65.7995 33.4786 64.6667 32.8642C63.5531 32.2306 62.6795 31.357 62.0459 30.2434C61.4315 29.1106 61.1243 27.805 61.1243 26.3266C61.1243 24.8098 61.4315 23.4754 62.0459 22.3234C62.6795 21.1522 63.5531 20.2402 64.6667 19.5874C65.7803 18.9154 67.0763 18.5794 68.5548 18.5794C69.9948 18.5794 71.2523 18.8962 72.3275 19.5298C73.4028 20.1634 74.238 21.0178 74.8332 22.093C75.4284 23.1682 75.726 24.3874 75.726 25.7506C75.726 25.9426 75.726 26.1634 75.726 26.413C75.726 26.6434 75.7068 26.8834 75.6683 27.133H63.8891V24.7714H71.8092C71.7516 23.8306 71.4155 23.0914 70.8011 22.5538C70.2059 22.0162 69.4572 21.7474 68.5548 21.7474C67.902 21.7474 67.2971 21.901 66.7403 22.2082C66.1835 22.4962 65.7419 22.9474 65.4155 23.5618C65.1083 24.1762 64.9547 24.9538 64.9547 25.8946V26.7298C64.9547 27.517 65.0987 28.2082 65.3867 28.8034C65.6939 29.3794 66.1163 29.8306 66.6539 30.157C67.1915 30.4642 67.8155 30.6178 68.5259 30.6178C69.2363 30.6178 69.8219 30.4642 70.2828 30.157C70.7627 29.8498 71.1179 29.4562 71.3484 28.9762H75.3228C75.054 29.8786 74.6028 30.6946 73.9692 31.4242C73.3356 32.1538 72.558 32.7298 71.6364 33.1522C70.7147 33.5746 69.6875 33.7858 68.5548 33.7858Z" fill="url(#paint0_linear_292_848)"/>
<path d="M85.7646 33.7858C84.3822 33.7858 83.1342 33.469 82.0206 32.8354C80.9262 32.1826 80.0526 31.2898 79.3998 30.157C78.7662 29.005 78.4494 27.6898 78.4494 26.2114C78.4494 24.6946 78.7662 23.3698 79.3998 22.237C80.0526 21.085 80.9358 20.1922 82.0494 19.5586C83.163 18.9058 84.411 18.5794 85.7934 18.5794C87.195 18.5794 88.443 18.9058 89.5374 19.5586C90.651 20.1922 91.5246 21.085 92.1582 22.237C92.811 23.3698 93.1374 24.685 93.1374 26.1826C93.1374 27.6802 92.811 29.005 92.1582 30.157C91.5246 31.2898 90.651 32.1826 89.5374 32.8354C88.4238 33.469 87.1662 33.7858 85.7646 33.7858ZM85.7646 30.4162C86.4174 30.4162 86.9934 30.2626 87.4926 29.9554C88.011 29.6482 88.4142 29.1778 88.7022 28.5442C89.0094 27.9106 89.163 27.1234 89.163 26.1826C89.163 25.2418 89.0094 24.4642 88.7022 23.8498C88.4142 23.2162 88.011 22.7458 87.4926 22.4386C86.9934 22.1122 86.427 21.949 85.7934 21.949C85.179 21.949 84.6126 22.1122 84.0942 22.4386C83.5758 22.7458 83.163 23.2162 82.8558 23.8498C82.5678 24.4642 82.4238 25.2418 82.4238 26.1826C82.4238 27.1234 82.5678 27.9106 82.8558 28.5442C83.163 29.1778 83.5662 29.6482 84.0654 29.9554C84.5838 30.2626 85.1502 30.4162 85.7646 30.4162ZM96.4883 33.4402V18.925H99.9443L100.319 21.6034C100.664 20.9698 101.096 20.4322 101.615 19.9906C102.152 19.549 102.757 19.2034 103.429 18.9538C104.12 18.7042 104.879 18.5794 105.704 18.5794V22.6978H104.379C103.803 22.6978 103.266 22.765 102.767 22.8994C102.287 23.0338 101.864 23.2546 101.499 23.5618C101.135 23.8498 100.856 24.253 100.664 24.7714C100.472 25.2898 100.376 25.9426 100.376 26.7298V33.4402H96.4883ZM116.855 33.7858C116.106 33.7858 115.434 33.6898 114.839 33.4978C114.263 33.3058 113.745 33.0466 113.284 32.7202C112.842 32.3746 112.468 31.9906 112.161 31.5682L111.729 33.4402H108.273V12.7042H112.161V20.941C112.621 20.269 113.226 19.7122 113.975 19.2706C114.743 18.8098 115.693 18.5794 116.826 18.5794C118.17 18.5794 119.361 18.9154 120.397 19.5874C121.453 20.2402 122.279 21.1426 122.874 22.2946C123.489 23.4274 123.796 24.733 123.796 26.2114C123.796 27.6514 123.489 28.9474 122.874 30.0994C122.279 31.2514 121.463 32.1538 120.426 32.8066C119.389 33.4594 118.199 33.7858 116.855 33.7858ZM115.933 30.3874C116.701 30.3874 117.373 30.2146 117.949 29.869C118.545 29.5042 119.005 29.0146 119.332 28.4002C119.658 27.7666 119.821 27.037 119.821 26.2114C119.821 25.3858 119.658 24.6562 119.332 24.0226C119.005 23.3698 118.545 22.8706 117.949 22.525C117.373 22.1602 116.701 21.9778 115.933 21.9778C115.185 21.9778 114.513 22.1602 113.917 22.525C113.341 22.8706 112.881 23.3602 112.535 23.9938C112.209 24.6274 112.045 25.357 112.045 26.1826C112.045 27.0082 112.209 27.7474 112.535 28.4002C112.881 29.0338 113.341 29.5234 113.917 29.869C114.513 30.2146 115.185 30.3874 115.933 30.3874ZM127.231 33.4402V18.925H131.119V33.4402H127.231ZM129.189 16.9378C128.498 16.9378 127.922 16.7362 127.461 16.333C127.02 15.9106 126.799 15.3826 126.799 14.749C126.799 14.1154 127.02 13.597 127.461 13.1938C127.922 12.7714 128.498 12.5602 129.189 12.5602C129.9 12.5602 130.476 12.7714 130.917 13.1938C131.378 13.597 131.609 14.1154 131.609 14.749C131.609 15.3826 131.378 15.9106 130.917 16.333C130.476 16.7362 129.9 16.9378 129.189 16.9378ZM141.585 33.4402C140.568 33.4402 139.675 33.2866 138.907 32.9794C138.158 32.653 137.572 32.125 137.15 31.3954C136.728 30.6466 136.516 29.629 136.516 28.3426V22.1794H134.04V18.925H136.516L136.948 14.9794H140.404V18.925H144.235V22.1794H140.404V28.4002C140.404 29.053 140.548 29.5042 140.836 29.7538C141.124 30.0034 141.614 30.1282 142.305 30.1282H144.206V33.4402H141.585Z" fill="black"/>
<defs>
<linearGradient id="paint0_linear_292_848" x1="88.3256" y1="2.77739" x2="9.71158" y2="40.4098" gradientUnits="userSpaceOnUse">
<stop stop-color="#F683E2"/>
<stop offset="1" stop-color="#6C46C3"/>
<stop offset="1" stop-color="#2D3BD3"/>
</linearGradient>
</defs>
</svg>
