<svg width="44" height="44" viewBox="0 0 44 44" fill="none" xmlns="http://www.w3.org/2000/svg">
<path d="M10.296 35.7846C9.47465 35.7846 8.77554 35.4961 8.19865 34.9192C7.62176 34.3423 7.33331 33.6438 7.33331 32.8237V9.41207C7.33331 8.59318 7.62176 7.89468 8.19865 7.31657C8.77554 6.73968 9.47465 6.45123 10.296 6.45123H33.7058C34.5247 6.45123 35.2232 6.73968 35.8013 7.31657C36.3782 7.89346 36.6666 8.59257 36.6666 9.4139V20.3222C36.3452 20.211 36.0372 20.1206 35.7426 20.0509C35.4493 19.9825 35.1462 19.914 34.8333 19.8456V9.4139C34.8333 9.13157 34.716 8.87246 34.4813 8.63657C34.2466 8.40068 33.9875 8.28334 33.704 8.28457H10.296C10.0136 8.28457 9.75454 8.4019 9.51865 8.63657C9.28276 8.87123 9.16542 9.13034 9.16665 9.4139V32.8237C9.16665 33.1048 9.28398 33.3633 9.51865 33.5992C9.75331 33.8351 10.0118 33.9525 10.2941 33.9512H20.6818C20.7258 34.2935 20.7826 34.6118 20.8523 34.9064C20.922 35.1997 21.0118 35.4925 21.1218 35.7846H10.296ZM9.16665 32.1179V33.9512V8.28457V19.8456V19.7081V32.1179ZM13.75 28.9462H21.01C21.0772 28.6321 21.1689 28.3284 21.285 28.0351L21.6516 27.1111H13.75V28.9462ZM13.75 22.0346H25.8133C26.4159 21.6117 27.0093 21.2536 27.5935 20.9602C28.1777 20.6657 28.8047 20.4347 29.4745 20.2672V20.2012H13.75V22.0346ZM13.75 15.1229H30.25V13.2896H13.75V15.1229ZM33 39.6657C30.9576 39.6657 29.2251 38.9538 27.8025 37.5299C26.3786 36.106 25.6666 34.3729 25.6666 32.3306C25.6666 30.2882 26.3786 28.5551 27.8025 27.1312C29.2264 25.7073 30.9589 24.996 33 24.9972C35.0411 24.9985 36.7742 25.7098 38.1993 27.1312C39.6244 28.5527 40.3358 30.2858 40.3333 32.3306C40.3333 34.3717 39.622 36.1042 38.1993 37.5281C36.7742 38.952 35.0411 39.6639 33 39.6639M32.296 37.6179H33.7058V33.0346H38.2891V31.6229H33.7058V27.0396H32.2941V31.6229H27.7108V33.0346H32.2941L32.296 37.6179Z" fill="white"/>
</svg>
