<svg width="36" height="36" viewBox="0 0 36 36" fill="none" xmlns="http://www.w3.org/2000/svg">
<path fill-rule="evenodd" clip-rule="evenodd" d="M7.5 4.5C6.70435 4.5 5.94129 4.81607 5.37868 5.37868C4.81607 5.94129 4.5 6.70435 4.5 7.5V28.5C4.5 29.2956 4.81607 30.0587 5.37868 30.6213C5.94129 31.1839 6.70435 31.5 7.5 31.5H28.5C29.2956 31.5 30.0587 31.1839 30.6213 30.6213C31.1839 30.0587 31.5 29.2956 31.5 28.5V7.5C31.5 6.70435 31.1839 5.94129 30.6213 5.37868C30.0587 4.81607 29.2956 4.5 28.5 4.5H7.5ZM7.5 7.5H28.5V28.5H7.5V7.5ZM25.425 14.6925C25.5683 14.5541 25.6825 14.3886 25.7612 14.2056C25.8398 14.0226 25.8811 13.8258 25.8829 13.6266C25.8846 13.4274 25.8467 13.2299 25.7712 13.0456C25.6958 12.8612 25.5844 12.6937 25.4436 12.5529C25.3028 12.4121 25.1353 12.3007 24.9509 12.2253C24.7666 12.1498 24.5691 12.1119 24.3699 12.1136C24.1707 12.1154 23.9739 12.1567 23.7909 12.2353C23.6079 12.314 23.4424 12.4282 23.304 12.5715L15.879 19.9965L12.6975 16.815C12.5582 16.6756 12.3929 16.5651 12.2109 16.4896C12.0289 16.4141 11.8338 16.3753 11.6368 16.3752C11.2389 16.3751 10.8572 16.533 10.5757 16.8143C10.2943 17.0955 10.1361 17.4771 10.1359 17.875C10.1358 18.2729 10.2937 18.6545 10.575 18.936L14.712 23.073C14.8652 23.2263 15.0472 23.3479 15.2474 23.4309C15.4476 23.5138 15.6623 23.5565 15.879 23.5565C16.0957 23.5565 16.3104 23.5138 16.5106 23.4309C16.7108 23.3479 16.8928 23.2263 17.046 23.073L25.425 14.6925Z" fill="black"/>
</svg>
