<svg width="40" height="40" viewBox="0 0 40 40" fill="none" xmlns="http://www.w3.org/2000/svg">
<circle cx="20" cy="20" r="20" fill="url(#paint0_linear_292_700)"/>
<g clip-path="url(#clip0_292_700)">
<path d="M7.83494 13.1863C8.06401 13.1215 8.37091 13.0885 8.76662 13.1001L9.19232 13.1268C9.64508 13.1695 10.2432 13.2709 10.9914 13.4334L11.7892 13.6166C11.885 13.641 11.9659 13.6864 12.0373 13.7686L12.1061 13.8648C12.1945 14.0112 12.2083 14.1337 12.176 14.2622C12.1501 14.3649 12.1041 14.4478 12.0251 14.518L11.9343 14.5844C11.804 14.6649 11.6889 14.6806 11.5552 14.647L11.5543 14.6473C11.2559 14.5715 10.9652 14.5087 10.6821 14.4598L10.4016 14.4154C10.0528 14.3654 9.68386 14.3121 9.29545 14.2546L7.81761 14.0356L8.79977 15.1602C9.30538 15.7387 9.82887 16.2937 10.3693 16.8249C10.9078 17.3543 11.4653 17.8687 12.0414 18.3682L12.6533 18.8983L12.9202 18.1346C13.2378 17.229 13.7231 16.4293 14.3783 15.7315L14.6699 15.4388C15.4684 14.6804 16.4352 14.1372 17.5812 13.8128C19.3458 13.3133 21.0054 13.4596 22.5874 14.2518L22.9028 14.4193C24.5795 15.3561 25.6756 16.7507 26.2077 18.6324L26.3157 19.0606C26.5055 19.9119 26.5364 20.743 26.4117 21.5576L26.3371 21.9644C26.0993 23.0543 25.635 24.0216 24.9441 24.8738L24.4349 25.5021L25.2062 25.7455C25.7515 25.9175 26.3016 26.0773 26.8563 26.2253L27.4126 26.3692C28.1634 26.5577 28.9172 26.7073 29.6741 26.818L31.0548 27.0198L30.1841 25.9307C30.0662 25.7832 29.9474 25.6381 29.8285 25.4955L29.4709 25.075C29.348 24.9337 29.2189 24.7924 29.0839 24.6507L28.661 24.2254C28.5909 24.1557 28.5443 24.0758 28.5247 23.9697L28.5146 23.8518C28.5133 23.7244 28.541 23.6288 28.595 23.5478L28.6576 23.4713C28.7517 23.3753 28.8633 23.3235 29.0326 23.3225C29.1618 23.3217 29.2583 23.35 29.3387 23.4033L29.415 23.4649C30.2904 24.3299 30.8857 24.9831 31.2206 25.4332C31.5588 25.8878 31.7553 26.2681 31.843 26.5775C31.9434 26.9322 31.9174 27.1623 31.8439 27.3191L31.8098 27.3816C31.706 27.5478 31.5403 27.6895 31.269 27.7874L31.1461 27.8262L31.1451 27.8265C30.6198 27.9752 29.8202 27.9889 28.7075 27.8204L28.2108 27.7367C26.8535 27.4868 25.3411 27.0488 23.672 26.4174L23.4253 26.3238L23.1974 26.4584C22.9143 26.6255 22.6216 26.7734 22.3195 26.9028C22.0933 26.9996 21.861 27.0867 21.6225 27.1621L21.3818 27.2332L21.3809 27.2335C19.6153 27.7334 17.9605 27.5888 16.3892 26.8026L16.0762 26.6365C14.4118 25.7066 13.3202 24.3155 12.787 22.4321C12.7193 22.193 12.665 21.9499 12.6241 21.7028L12.5873 21.4544C12.5438 21.1136 12.5189 20.7773 12.5127 20.4453L12.5077 20.1839L12.3027 20.0227C11.0801 19.0632 10.0374 18.1335 9.17106 17.2352L8.80993 16.8523C7.86885 15.8263 7.35914 15.0196 7.18876 14.4207C7.09833 14.1013 7.11481 13.8702 7.18689 13.6935L7.22113 13.6209C7.31981 13.4376 7.49779 13.2824 7.83494 13.1863ZM21.4409 20.5301C21.0666 20.6361 20.758 20.847 20.5423 21.16L20.4562 21.3001C20.2694 21.6385 20.2141 22.0048 20.2816 22.3756L20.3176 22.5349C20.4214 22.9115 20.6345 23.2197 20.9483 23.4363L21.0887 23.5234C21.4769 23.7386 21.901 23.7811 22.3267 23.659L22.327 23.66L22.3277 23.6588L22.3298 23.6592L22.3286 23.6585C22.7549 23.5374 23.0954 23.2799 23.3122 22.8918C23.5023 22.5516 23.5579 22.183 23.4871 21.8101L23.4489 21.6504C23.3427 21.2785 23.132 20.9725 22.8222 20.7561L22.684 20.6693C22.2953 20.4504 21.8686 20.409 21.4409 20.5301ZM21.8566 17.0549C21.5477 17.1424 21.2848 17.3158 21.1027 17.5789L21.0295 17.6971C20.8736 17.9808 20.8319 18.2883 20.8879 18.5948L20.918 18.7263C21.0034 19.0388 21.1793 19.3011 21.4431 19.484L21.5612 19.5572C21.8871 19.7372 22.2438 19.7675 22.5959 19.6661L22.5961 19.6671L22.5968 19.6659L22.599 19.6663L22.5978 19.6656C22.9053 19.578 23.1653 19.4053 23.3475 19.1448L23.4209 19.0276C23.5806 18.7417 23.623 18.4316 23.5635 18.1225L23.5319 17.9893C23.4442 17.6831 23.2713 17.4238 23.0126 17.2412L22.8963 17.1675C22.5691 16.9827 22.2093 16.9551 21.8566 17.0549ZM17.3815 16.0829C16.9459 16.2081 16.5914 16.4557 16.3413 16.8179L16.2411 16.9803C15.9902 17.4307 15.9374 17.9224 16.0754 18.4207C16.1974 18.8607 16.4464 19.2168 16.8123 19.4675L16.9758 19.5684C17.428 19.8178 17.92 19.8715 18.4173 19.7307C18.8542 19.6069 19.2088 19.3591 19.4598 18.9961L19.5609 18.8335C19.782 18.4377 19.8509 18.0108 19.7692 17.5759L19.7245 17.3896C19.6004 16.9543 19.3534 16.6001 18.9923 16.3485L18.8307 16.2471C18.3778 15.9916 17.8824 15.9391 17.3815 16.0829Z" fill="#483183" stroke="#483183" stroke-width="1.1"/>
</g>
<defs>
<linearGradient id="paint0_linear_292_700" x1="38.5" y1="-1.5" x2="3" y2="40" gradientUnits="userSpaceOnUse">
<stop stop-color="#CCCCFF"/>
<stop offset="1" stop-color="#FFDBF8"/>
</linearGradient>
<clipPath id="clip0_292_700">
<rect width="25.8437" height="25.8437" fill="white" transform="translate(3.5498 11.5899) rotate(-15.8078)"/>
</clipPath>
</defs>
</svg>
