<svg width="19" height="18" viewBox="0 0 19 18" fill="none" xmlns="http://www.w3.org/2000/svg">
<path d="M5.8501 7.5V16.5M11.8501 4.41L11.1001 7.5H15.4726C15.7055 7.5 15.9351 7.55422 16.1434 7.65836C16.3517 7.7625 16.5329 7.91371 16.6726 8.1C16.8123 8.28629 16.9067 8.50256 16.9484 8.73167C16.9901 8.96078 16.9778 9.19645 16.9126 9.42L15.1651 15.42C15.0742 15.7316 14.8847 16.0053 14.6251 16.2C14.3655 16.3947 14.0497 16.5 13.7251 16.5H3.6001C3.20227 16.5 2.82074 16.342 2.53944 16.0607C2.25813 15.7794 2.1001 15.3978 2.1001 15V9C2.1001 8.60218 2.25813 8.22064 2.53944 7.93934C2.82074 7.65804 3.20227 7.5 3.6001 7.5H5.6701C5.94916 7.49985 6.22265 7.42186 6.45981 7.27479C6.69698 7.12772 6.88841 6.91741 7.0126 6.6675L9.6001 1.5C9.95378 1.50438 10.3019 1.58863 10.6185 1.74645C10.935 1.90427 11.2118 2.13158 11.4282 2.4114C11.6445 2.69122 11.7948 3.01632 11.8679 3.3624C11.941 3.70848 11.9349 4.0666 11.8501 4.41Z" stroke="#483183" stroke-width="1.5" stroke-linecap="round" stroke-linejoin="round"/>
</svg>
