<svg width="193" height="255" viewBox="0 0 193 255" fill="none" xmlns="http://www.w3.org/2000/svg">
<rect x="0.5" y="0.5" width="191.8" height="254" rx="3.5" stroke="#483183" stroke-dasharray="12 4"/>
<path d="M55.7164 161.192C54.9484 161.192 54.2497 161.037 53.6204 160.728C53.0017 160.419 52.5057 159.949 52.1324 159.32C51.759 158.68 51.5724 157.864 51.5724 156.872V149.8H52.9164V156.888C52.9164 157.613 53.0337 158.205 53.2684 158.664C53.5137 159.123 53.8497 159.459 54.2764 159.672C54.703 159.885 55.1937 159.992 55.7484 159.992C56.3137 159.992 56.8044 159.885 57.2204 159.672C57.6364 159.459 57.9617 159.123 58.1964 158.664C58.431 158.205 58.5484 157.613 58.5484 156.888V149.8H59.8924V156.872C59.8924 157.864 59.7057 158.68 59.3324 159.32C58.959 159.949 58.4577 160.419 57.8284 160.728C57.199 161.037 56.495 161.192 55.7164 161.192ZM62.0888 164.52V152.936H63.3048L63.4168 154.248C63.5874 153.992 63.8061 153.752 64.0728 153.528C64.3394 153.293 64.6594 153.107 65.0328 152.968C65.4061 152.819 65.8328 152.744 66.3128 152.744C67.1021 152.744 67.7848 152.931 68.3608 153.304C68.9474 153.677 69.4008 154.184 69.7208 154.824C70.0514 155.453 70.2168 156.173 70.2168 156.984C70.2168 157.795 70.0514 158.52 69.7208 159.16C69.4008 159.789 68.9474 160.285 68.3608 160.648C67.7741 161.011 67.0861 161.192 66.2968 161.192C65.6461 161.192 65.0701 161.059 64.5688 160.792C64.0781 160.525 63.6994 160.152 63.4328 159.672V164.52H62.0888ZM66.1528 160.024C66.6754 160.024 67.1394 159.896 67.5448 159.64C67.9501 159.384 68.2648 159.032 68.4888 158.584C68.7234 158.125 68.8408 157.587 68.8408 156.968C68.8408 156.36 68.7234 155.827 68.4888 155.368C68.2648 154.909 67.9501 154.552 67.5448 154.296C67.1394 154.04 66.6754 153.912 66.1528 153.912C65.6194 153.912 65.1501 154.04 64.7448 154.296C64.3394 154.552 64.0248 154.909 63.8008 155.368C63.5768 155.827 63.4648 156.36 63.4648 156.968C63.4648 157.587 63.5768 158.125 63.8008 158.584C64.0248 159.032 64.3394 159.384 64.7448 159.64C65.1501 159.896 65.6194 160.024 66.1528 160.024ZM72.1044 161V149.48H73.4484V161H72.1044ZM79.2669 161.192C78.5202 161.192 77.8482 161.021 77.2509 160.68C76.6535 160.328 76.1842 159.837 75.8429 159.208C75.5015 158.568 75.3309 157.827 75.3309 156.984C75.3309 156.12 75.5015 155.373 75.8429 154.744C76.1949 154.104 76.6695 153.613 77.2669 153.272C77.8749 152.92 78.5522 152.744 79.2989 152.744C80.0669 152.744 80.7442 152.92 81.3309 153.272C81.9282 153.613 82.3975 154.104 82.7389 154.744C83.0909 155.373 83.2669 156.115 83.2669 156.968C83.2669 157.821 83.0909 158.568 82.7389 159.208C82.3869 159.837 81.9122 160.328 81.3149 160.68C80.7175 161.021 80.0349 161.192 79.2669 161.192ZM79.2829 160.04C79.7415 160.04 80.1682 159.928 80.5629 159.704C80.9575 159.469 81.2775 159.123 81.5229 158.664C81.7682 158.205 81.8909 157.64 81.8909 156.968C81.8909 156.285 81.7682 155.72 81.5229 155.272C81.2882 154.813 80.9735 154.472 80.5789 154.248C80.1949 154.013 79.7682 153.896 79.2989 153.896C78.8509 153.896 78.4242 154.013 78.0189 154.248C77.6242 154.472 77.3042 154.813 77.0589 155.272C76.8242 155.72 76.7069 156.285 76.7069 156.968C76.7069 157.64 76.8242 158.205 77.0589 158.664C77.3042 159.123 77.6189 159.469 78.0029 159.704C78.3975 159.928 78.8242 160.04 79.2829 160.04ZM87.7753 161.192C87.1246 161.192 86.5806 161.08 86.1432 160.856C85.7059 160.621 85.3806 160.317 85.1673 159.944C84.9539 159.56 84.8473 159.144 84.8473 158.696C84.8473 158.152 84.9859 157.693 85.2633 157.32C85.5513 156.936 85.9513 156.648 86.4633 156.456C86.9859 156.253 87.5993 156.152 88.3033 156.152H90.4313C90.4313 155.651 90.3513 155.235 90.1913 154.904C90.0419 154.563 89.8179 154.307 89.5193 154.136C89.2313 153.965 88.8686 153.88 88.4313 153.88C87.9193 153.88 87.4766 154.008 87.1033 154.264C86.7299 154.52 86.5006 154.899 86.4153 155.4H85.0393C85.1033 154.824 85.2953 154.344 85.6153 153.96C85.9459 153.565 86.3619 153.267 86.8633 153.064C87.3646 152.851 87.8873 152.744 88.4313 152.744C89.1779 152.744 89.7966 152.883 90.2873 153.16C90.7886 153.427 91.1619 153.805 91.4073 154.296C91.6526 154.776 91.7753 155.347 91.7753 156.008V161H90.5753L90.4953 159.576C90.3886 159.8 90.2499 160.013 90.0793 160.216C89.9193 160.408 89.7273 160.579 89.5033 160.728C89.2793 160.867 89.0233 160.979 88.7352 161.064C88.4579 161.149 88.1379 161.192 87.7753 161.192ZM87.9833 160.056C88.3566 160.056 88.6926 159.981 88.9913 159.832C89.3006 159.672 89.5619 159.459 89.7753 159.192C89.9886 158.915 90.1486 158.611 90.2553 158.28C90.3726 157.949 90.4313 157.603 90.4313 157.24V157.192H88.4153C87.8926 157.192 87.4713 157.256 87.1513 157.384C86.8313 157.501 86.6019 157.672 86.4633 157.896C86.3246 158.109 86.2553 158.355 86.2553 158.632C86.2553 158.92 86.3193 159.171 86.4473 159.384C86.5859 159.597 86.7833 159.763 87.0393 159.88C87.3059 159.997 87.6206 160.056 87.9833 160.056ZM97.4064 161.192C96.6277 161.192 95.945 161.011 95.3584 160.648C94.7717 160.275 94.3184 159.768 93.9984 159.128C93.6784 158.488 93.5184 157.763 93.5184 156.952C93.5184 156.141 93.6784 155.421 93.9984 154.792C94.3184 154.152 94.7717 153.651 95.3584 153.288C95.9557 152.925 96.6437 152.744 97.4224 152.744C98.0837 152.744 98.6597 152.877 99.1504 153.144C99.6517 153.411 100.036 153.784 100.302 154.264V149.48H101.646V161H100.43L100.318 159.672C100.148 159.939 99.929 160.189 99.6624 160.424C99.3957 160.648 99.0757 160.835 98.7024 160.984C98.329 161.123 97.897 161.192 97.4064 161.192ZM97.5664 160.024C98.0997 160.024 98.569 159.896 98.9744 159.64C99.3797 159.384 99.6944 159.032 99.9184 158.584C100.142 158.125 100.254 157.587 100.254 156.968C100.254 156.36 100.142 155.827 99.9184 155.368C99.6944 154.909 99.3797 154.552 98.9744 154.296C98.569 154.04 98.0997 153.912 97.5664 153.912C97.0437 153.912 96.5797 154.04 96.1744 154.296C95.769 154.552 95.4544 154.909 95.2304 155.368C95.0064 155.827 94.8944 156.36 94.8944 156.968C94.8944 157.587 95.0064 158.125 95.2304 158.584C95.4544 159.032 95.769 159.384 96.1744 159.64C96.5797 159.896 97.0437 160.024 97.5664 160.024ZM108.136 161V152.936H109.352L109.416 154.344C109.672 153.843 110.034 153.453 110.504 153.176C110.984 152.888 111.528 152.744 112.136 152.744C112.765 152.744 113.309 152.872 113.768 153.128C114.226 153.373 114.584 153.752 114.84 154.264C115.096 154.765 115.224 155.405 115.224 156.184V161H113.88V156.328C113.88 155.517 113.698 154.909 113.336 154.504C112.984 154.099 112.482 153.896 111.832 153.896C111.384 153.896 110.984 154.008 110.632 154.232C110.28 154.445 109.997 154.76 109.784 155.176C109.581 155.581 109.48 156.088 109.48 156.696V161H108.136ZM120.923 161.192C120.176 161.192 119.504 161.021 118.907 160.68C118.31 160.328 117.84 159.837 117.499 159.208C117.158 158.568 116.987 157.827 116.987 156.984C116.987 156.12 117.158 155.373 117.499 154.744C117.851 154.104 118.326 153.613 118.923 153.272C119.531 152.92 120.208 152.744 120.955 152.744C121.723 152.744 122.4 152.92 122.987 153.272C123.584 153.613 124.054 154.104 124.395 154.744C124.747 155.373 124.923 156.115 124.923 156.968C124.923 157.821 124.747 158.568 124.395 159.208C124.043 159.837 123.568 160.328 122.971 160.68C122.374 161.021 121.691 161.192 120.923 161.192ZM120.939 160.04C121.398 160.04 121.824 159.928 122.219 159.704C122.614 159.469 122.934 159.123 123.179 158.664C123.424 158.205 123.547 157.64 123.547 156.968C123.547 156.285 123.424 155.72 123.179 155.272C122.944 154.813 122.63 154.472 122.235 154.248C121.851 154.013 121.424 153.896 120.955 153.896C120.507 153.896 120.08 154.013 119.675 154.248C119.28 154.472 118.96 154.813 118.715 155.272C118.48 155.72 118.363 156.285 118.363 156.968C118.363 157.64 118.48 158.205 118.715 158.664C118.96 159.123 119.275 159.469 119.659 159.704C120.054 159.928 120.48 160.04 120.939 160.04ZM129.663 161C129.183 161 128.767 160.925 128.415 160.776C128.063 160.627 127.791 160.376 127.599 160.024C127.418 159.661 127.327 159.176 127.327 158.568V154.072H125.919V152.936H127.327L127.503 150.984H128.671V152.936H131.007V154.072H128.671V158.568C128.671 159.069 128.772 159.411 128.975 159.592C129.178 159.763 129.535 159.848 130.047 159.848H130.911V161H129.663ZM136.078 161.192C135.321 161.192 134.649 161.016 134.062 160.664C133.486 160.312 133.033 159.821 132.702 159.192C132.371 158.552 132.206 157.811 132.206 156.968C132.206 156.115 132.366 155.373 132.686 154.744C133.017 154.115 133.475 153.624 134.062 153.272C134.659 152.92 135.342 152.744 136.11 152.744C136.899 152.744 137.566 152.92 138.11 153.272C138.665 153.624 139.086 154.088 139.374 154.664C139.673 155.229 139.822 155.853 139.822 156.536C139.822 156.643 139.822 156.755 139.822 156.872C139.822 156.989 139.817 157.123 139.806 157.272H133.214V156.232H138.51C138.478 155.496 138.233 154.92 137.774 154.504C137.326 154.088 136.761 153.88 136.078 153.88C135.619 153.88 135.193 153.987 134.798 154.2C134.414 154.403 134.105 154.707 133.87 155.112C133.635 155.507 133.518 156.003 133.518 156.6V157.048C133.518 157.709 133.635 158.264 133.87 158.712C134.115 159.16 134.43 159.496 134.814 159.72C135.209 159.944 135.63 160.056 136.078 160.056C136.643 160.056 137.107 159.933 137.47 159.688C137.843 159.432 138.11 159.091 138.27 158.664H139.598C139.47 159.144 139.246 159.576 138.926 159.96C138.606 160.344 138.206 160.648 137.726 160.872C137.257 161.085 136.707 161.192 136.078 161.192Z" fill="#483183"/>
<path d="M94.4839 126.12V108.68H97.4839V126.12H94.4839ZM86.8439 118.8V115.96H105.124V118.8H86.8439Z" fill="#483183"/>
</svg>
