<svg width="1302" height="332" viewBox="0 0 1302 332" fill="none" xmlns="http://www.w3.org/2000/svg">
<rect x="1" y="1" width="1300" height="330" rx="6" fill="white" stroke="#B0B0B0" stroke-dasharray="10 6"/>
<path d="M557.222 208.65L561.35 197.45H562.774L566.886 208.65H565.462L562.054 199.13L558.63 208.65H557.222ZM559.11 205.77L559.494 204.682H564.566L564.95 205.77H559.11ZM571.682 208.842C570.924 208.842 570.242 208.666 569.634 208.314C569.036 207.962 568.567 207.471 568.226 206.842C567.884 206.202 567.714 205.466 567.714 204.634C567.714 203.78 567.884 203.039 568.226 202.41C568.567 201.78 569.036 201.29 569.634 200.938C570.242 200.575 570.924 200.394 571.682 200.394C572.642 200.394 573.442 200.644 574.082 201.146C574.722 201.636 575.127 202.298 575.298 203.13H573.922C573.815 202.628 573.554 202.239 573.138 201.962C572.722 201.684 572.231 201.546 571.666 201.546C571.207 201.546 570.78 201.663 570.386 201.898C569.991 202.122 569.676 202.463 569.442 202.922C569.207 203.38 569.09 203.946 569.09 204.618C569.09 205.119 569.159 205.567 569.298 205.962C569.436 206.346 569.623 206.666 569.858 206.922C570.092 207.178 570.364 207.375 570.674 207.514C570.994 207.642 571.324 207.706 571.666 207.706C572.05 207.706 572.396 207.647 572.706 207.53C573.015 207.402 573.276 207.215 573.49 206.97C573.703 206.724 573.847 206.436 573.922 206.106H575.298C575.127 206.916 574.716 207.578 574.066 208.09C573.426 208.591 572.631 208.842 571.682 208.842ZM580.838 208.842C580.081 208.842 579.398 208.666 578.79 208.314C578.193 207.962 577.723 207.471 577.382 206.842C577.041 206.202 576.87 205.466 576.87 204.634C576.87 203.78 577.041 203.039 577.382 202.41C577.723 201.78 578.193 201.29 578.79 200.938C579.398 200.575 580.081 200.394 580.838 200.394C581.798 200.394 582.598 200.644 583.238 201.146C583.878 201.636 584.283 202.298 584.454 203.13H583.078C582.971 202.628 582.71 202.239 582.294 201.962C581.878 201.684 581.387 201.546 580.822 201.546C580.363 201.546 579.937 201.663 579.542 201.898C579.147 202.122 578.833 202.463 578.598 202.922C578.363 203.38 578.246 203.946 578.246 204.618C578.246 205.119 578.315 205.567 578.454 205.962C578.593 206.346 578.779 206.666 579.014 206.922C579.249 207.178 579.521 207.375 579.83 207.514C580.15 207.642 580.481 207.706 580.822 207.706C581.206 207.706 581.553 207.647 581.862 207.53C582.171 207.402 582.433 207.215 582.646 206.97C582.859 206.724 583.003 206.436 583.078 206.106H584.454C584.283 206.916 583.873 207.578 583.222 208.09C582.582 208.591 581.787 208.842 580.838 208.842ZM589.898 208.842C589.141 208.842 588.469 208.666 587.882 208.314C587.306 207.962 586.853 207.471 586.522 206.842C586.192 206.202 586.026 205.46 586.026 204.618C586.026 203.764 586.186 203.023 586.506 202.394C586.837 201.764 587.296 201.274 587.882 200.922C588.48 200.57 589.162 200.394 589.93 200.394C590.72 200.394 591.386 200.57 591.93 200.922C592.485 201.274 592.906 201.738 593.194 202.314C593.493 202.879 593.642 203.503 593.642 204.186C593.642 204.292 593.642 204.404 593.642 204.522C593.642 204.639 593.637 204.772 593.626 204.922H587.034V203.882H592.33C592.298 203.146 592.053 202.57 591.594 202.154C591.146 201.738 590.581 201.53 589.898 201.53C589.44 201.53 589.013 201.636 588.618 201.85C588.234 202.052 587.925 202.356 587.69 202.762C587.456 203.156 587.338 203.652 587.338 204.25V204.698C587.338 205.359 587.456 205.914 587.69 206.362C587.936 206.81 588.25 207.146 588.634 207.37C589.029 207.594 589.45 207.706 589.898 207.706C590.464 207.706 590.928 207.583 591.29 207.338C591.664 207.082 591.93 206.74 592.09 206.314H593.418C593.29 206.794 593.066 207.226 592.746 207.61C592.426 207.994 592.026 208.298 591.546 208.522C591.077 208.735 590.528 208.842 589.898 208.842ZM595.456 212.17V200.586H596.672L596.784 201.898C596.955 201.642 597.173 201.402 597.44 201.178C597.707 200.943 598.027 200.756 598.4 200.618C598.773 200.468 599.2 200.394 599.68 200.394C600.469 200.394 601.152 200.58 601.728 200.954C602.315 201.327 602.768 201.834 603.088 202.474C603.419 203.103 603.584 203.823 603.584 204.634C603.584 205.444 603.419 206.17 603.088 206.81C602.768 207.439 602.315 207.935 601.728 208.298C601.141 208.66 600.453 208.842 599.664 208.842C599.013 208.842 598.437 208.708 597.936 208.442C597.445 208.175 597.067 207.802 596.8 207.322V212.17H595.456ZM599.52 207.674C600.043 207.674 600.507 207.546 600.912 207.29C601.317 207.034 601.632 206.682 601.856 206.234C602.091 205.775 602.208 205.236 602.208 204.618C602.208 204.01 602.091 203.476 601.856 203.018C601.632 202.559 601.317 202.202 600.912 201.946C600.507 201.69 600.043 201.562 599.52 201.562C598.987 201.562 598.517 201.69 598.112 201.946C597.707 202.202 597.392 202.559 597.168 203.018C596.944 203.476 596.832 204.01 596.832 204.618C596.832 205.236 596.944 205.775 597.168 206.234C597.392 206.682 597.707 207.034 598.112 207.29C598.517 207.546 598.987 207.674 599.52 207.674ZM608.327 208.65C607.847 208.65 607.431 208.575 607.079 208.426C606.727 208.276 606.455 208.026 606.263 207.674C606.082 207.311 605.991 206.826 605.991 206.218V201.722H604.583V200.586H605.991L606.167 198.634H607.335V200.586H609.671V201.722H607.335V206.218C607.335 206.719 607.436 207.06 607.639 207.242C607.842 207.412 608.199 207.498 608.711 207.498H609.575V208.65H608.327ZM614.742 208.842C613.985 208.842 613.313 208.666 612.726 208.314C612.15 207.962 611.697 207.471 611.366 206.842C611.035 206.202 610.87 205.46 610.87 204.618C610.87 203.764 611.03 203.023 611.35 202.394C611.681 201.764 612.139 201.274 612.726 200.922C613.323 200.57 614.006 200.394 614.774 200.394C615.563 200.394 616.23 200.57 616.774 200.922C617.329 201.274 617.75 201.738 618.038 202.314C618.337 202.879 618.486 203.503 618.486 204.186C618.486 204.292 618.486 204.404 618.486 204.522C618.486 204.639 618.481 204.772 618.47 204.922H611.878V203.882H617.174C617.142 203.146 616.897 202.57 616.438 202.154C615.99 201.738 615.425 201.53 614.742 201.53C614.283 201.53 613.857 201.636 613.462 201.85C613.078 202.052 612.769 202.356 612.534 202.762C612.299 203.156 612.182 203.652 612.182 204.25V204.698C612.182 205.359 612.299 205.914 612.534 206.362C612.779 206.81 613.094 207.146 613.478 207.37C613.873 207.594 614.294 207.706 614.742 207.706C615.307 207.706 615.771 207.583 616.134 207.338C616.507 207.082 616.774 206.74 616.934 206.314H618.262C618.134 206.794 617.91 207.226 617.59 207.61C617.27 207.994 616.87 208.298 616.39 208.522C615.921 208.735 615.371 208.842 614.742 208.842ZM623.852 208.842C623.073 208.842 622.39 208.66 621.804 208.298C621.217 207.924 620.764 207.418 620.444 206.778C620.124 206.138 619.964 205.412 619.964 204.602C619.964 203.791 620.124 203.071 620.444 202.442C620.764 201.802 621.217 201.3 621.804 200.938C622.401 200.575 623.089 200.394 623.868 200.394C624.529 200.394 625.105 200.527 625.596 200.794C626.097 201.06 626.481 201.434 626.748 201.914V197.13H628.092V208.65H626.876L626.764 207.322C626.593 207.588 626.374 207.839 626.108 208.074C625.841 208.298 625.521 208.484 625.148 208.634C624.774 208.772 624.342 208.842 623.852 208.842ZM624.012 207.674C624.545 207.674 625.014 207.546 625.42 207.29C625.825 207.034 626.14 206.682 626.364 206.234C626.588 205.775 626.7 205.236 626.7 204.618C626.7 204.01 626.588 203.476 626.364 203.018C626.14 202.559 625.825 202.202 625.42 201.946C625.014 201.69 624.545 201.562 624.012 201.562C623.489 201.562 623.025 201.69 622.62 201.946C622.214 202.202 621.9 202.559 621.676 203.018C621.452 203.476 621.34 204.01 621.34 204.618C621.34 205.236 621.452 205.775 621.676 206.234C621.9 206.682 622.214 207.034 622.62 207.29C623.025 207.546 623.489 207.674 624.012 207.674ZM635.029 208.65V201.722H633.797V200.586H635.029V199.338C635.029 198.826 635.114 198.41 635.285 198.09C635.456 197.759 635.706 197.519 636.037 197.37C636.378 197.21 636.794 197.13 637.285 197.13H638.085V198.282H637.493C637.098 198.282 636.81 198.362 636.629 198.522C636.458 198.682 636.373 198.964 636.373 199.37V200.586H641.205V208.65H639.861V201.722H636.373V208.65H635.029ZM640.549 199.05C640.293 199.05 640.074 198.964 639.893 198.794C639.712 198.612 639.621 198.388 639.621 198.122C639.621 197.855 639.712 197.642 639.893 197.482C640.074 197.311 640.293 197.226 640.549 197.226C640.816 197.226 641.034 197.311 641.205 197.482C641.386 197.642 641.477 197.855 641.477 198.122C641.477 198.388 641.386 198.612 641.205 198.794C641.034 198.964 640.816 199.05 640.549 199.05ZM643.597 208.65V197.13H644.941V208.65H643.597ZM650.695 208.842C649.938 208.842 649.266 208.666 648.679 208.314C648.103 207.962 647.65 207.471 647.319 206.842C646.988 206.202 646.823 205.46 646.823 204.618C646.823 203.764 646.983 203.023 647.303 202.394C647.634 201.764 648.092 201.274 648.679 200.922C649.276 200.57 649.959 200.394 650.727 200.394C651.516 200.394 652.183 200.57 652.727 200.922C653.282 201.274 653.703 201.738 653.991 202.314C654.29 202.879 654.439 203.503 654.439 204.186C654.439 204.292 654.439 204.404 654.439 204.522C654.439 204.639 654.434 204.772 654.423 204.922H647.831V203.882H653.127C653.095 203.146 652.85 202.57 652.391 202.154C651.943 201.738 651.378 201.53 650.695 201.53C650.236 201.53 649.81 201.636 649.415 201.85C649.031 202.052 648.722 202.356 648.487 202.762C648.252 203.156 648.135 203.652 648.135 204.25V204.698C648.135 205.359 648.252 205.914 648.487 206.362C648.732 206.81 649.047 207.146 649.431 207.37C649.826 207.594 650.247 207.706 650.695 207.706C651.26 207.706 651.724 207.583 652.087 207.338C652.46 207.082 652.727 206.74 652.887 206.314H654.215C654.087 206.794 653.863 207.226 653.543 207.61C653.223 207.994 652.823 208.298 652.343 208.522C651.874 208.735 651.324 208.842 650.695 208.842ZM660.951 208.65V199.338C660.951 198.826 661.036 198.41 661.207 198.09C661.378 197.759 661.628 197.519 661.959 197.37C662.3 197.21 662.716 197.13 663.207 197.13H664.119V198.282H663.415C663.02 198.282 662.732 198.362 662.551 198.522C662.38 198.682 662.295 198.964 662.295 199.37V208.65H660.951ZM659.719 201.722V200.586H664.327V201.722H659.719ZM669.228 208.842C668.481 208.842 667.809 208.671 667.212 208.33C666.615 207.978 666.145 207.487 665.804 206.858C665.463 206.218 665.292 205.476 665.292 204.634C665.292 203.77 665.463 203.023 665.804 202.394C666.156 201.754 666.631 201.263 667.228 200.922C667.836 200.57 668.513 200.394 669.26 200.394C670.028 200.394 670.705 200.57 671.292 200.922C671.889 201.263 672.359 201.754 672.7 202.394C673.052 203.023 673.228 203.764 673.228 204.618C673.228 205.471 673.052 206.218 672.7 206.858C672.348 207.487 671.873 207.978 671.276 208.33C670.679 208.671 669.996 208.842 669.228 208.842ZM669.244 207.69C669.703 207.69 670.129 207.578 670.524 207.354C670.919 207.119 671.239 206.772 671.484 206.314C671.729 205.855 671.852 205.29 671.852 204.618C671.852 203.935 671.729 203.37 671.484 202.922C671.249 202.463 670.935 202.122 670.54 201.898C670.156 201.663 669.729 201.546 669.26 201.546C668.812 201.546 668.385 201.663 667.98 201.898C667.585 202.122 667.265 202.463 667.02 202.922C666.785 203.37 666.668 203.935 666.668 204.618C666.668 205.29 666.785 205.855 667.02 206.314C667.265 206.772 667.58 207.119 667.964 207.354C668.359 207.578 668.785 207.69 669.244 207.69ZM675.112 208.65V200.586H676.328L676.424 202.122C676.606 201.759 676.835 201.45 677.112 201.194C677.4 200.938 677.742 200.74 678.136 200.602C678.542 200.463 679 200.394 679.512 200.394V201.802H679.016C678.675 201.802 678.35 201.85 678.04 201.946C677.731 202.031 677.454 202.175 677.208 202.378C676.974 202.58 676.787 202.858 676.648 203.21C676.52 203.551 676.456 203.978 676.456 204.49V208.65H675.112ZM681.034 208.65V200.586H682.25L682.33 201.738C682.586 201.322 682.927 200.996 683.354 200.762C683.791 200.516 684.266 200.394 684.778 200.394C685.194 200.394 685.567 200.452 685.898 200.57C686.239 200.676 686.538 200.847 686.794 201.082C687.05 201.306 687.258 201.594 687.418 201.946C687.695 201.455 688.074 201.076 688.554 200.81C689.045 200.532 689.567 200.394 690.122 200.394C690.741 200.394 691.279 200.522 691.738 200.778C692.207 201.023 692.565 201.402 692.81 201.914C693.066 202.415 693.194 203.055 693.194 203.834V208.65H691.866V203.978C691.866 203.167 691.701 202.559 691.37 202.154C691.039 201.748 690.575 201.546 689.978 201.546C689.562 201.546 689.189 201.658 688.858 201.882C688.527 202.095 688.266 202.41 688.074 202.826C687.882 203.242 687.786 203.754 687.786 204.362V208.65H686.442V203.978C686.442 203.167 686.277 202.559 685.946 202.154C685.615 201.748 685.146 201.546 684.538 201.546C684.133 201.546 683.765 201.658 683.434 201.882C683.114 202.095 682.858 202.41 682.666 202.826C682.474 203.242 682.378 203.754 682.378 204.362V208.65H681.034ZM697.908 208.842C697.257 208.842 696.713 208.73 696.276 208.506C695.839 208.271 695.513 207.967 695.3 207.594C695.087 207.21 694.98 206.794 694.98 206.346C694.98 205.802 695.119 205.343 695.396 204.97C695.684 204.586 696.084 204.298 696.596 204.106C697.119 203.903 697.732 203.802 698.436 203.802H700.564C700.564 203.3 700.484 202.884 700.324 202.554C700.175 202.212 699.951 201.956 699.652 201.786C699.364 201.615 699.001 201.53 698.564 201.53C698.052 201.53 697.609 201.658 697.236 201.914C696.863 202.17 696.633 202.548 696.548 203.05H695.172C695.236 202.474 695.428 201.994 695.748 201.61C696.079 201.215 696.495 200.916 696.996 200.714C697.497 200.5 698.02 200.394 698.564 200.394C699.311 200.394 699.929 200.532 700.42 200.81C700.921 201.076 701.295 201.455 701.54 201.946C701.785 202.426 701.908 202.996 701.908 203.658V208.65H700.708L700.628 207.226C700.521 207.45 700.383 207.663 700.212 207.866C700.052 208.058 699.86 208.228 699.636 208.378C699.412 208.516 699.156 208.628 698.868 208.714C698.591 208.799 698.271 208.842 697.908 208.842ZM698.116 207.706C698.489 207.706 698.825 207.631 699.124 207.482C699.433 207.322 699.695 207.108 699.908 206.842C700.121 206.564 700.281 206.26 700.388 205.93C700.505 205.599 700.564 205.252 700.564 204.89V204.842H698.548C698.025 204.842 697.604 204.906 697.284 205.034C696.964 205.151 696.735 205.322 696.596 205.546C696.457 205.759 696.388 206.004 696.388 206.282C696.388 206.57 696.452 206.82 696.58 207.034C696.719 207.247 696.916 207.412 697.172 207.53C697.439 207.647 697.753 207.706 698.116 207.706ZM706.936 208.65C706.456 208.65 706.04 208.575 705.688 208.426C705.336 208.276 705.064 208.026 704.872 207.674C704.691 207.311 704.6 206.826 704.6 206.218V201.722H703.192V200.586H704.6L704.776 198.634H705.944V200.586H708.28V201.722H705.944V206.218C705.944 206.719 706.046 207.06 706.248 207.242C706.451 207.412 706.808 207.498 707.32 207.498H708.184V208.65H706.936ZM710.514 208.73C710.247 208.73 710.023 208.644 709.842 208.474C709.671 208.292 709.586 208.074 709.586 207.818C709.586 207.562 709.671 207.348 709.842 207.178C710.023 206.996 710.247 206.906 710.514 206.906C710.781 206.906 710.999 206.996 711.17 207.178C711.341 207.348 711.426 207.562 711.426 207.818C711.426 208.074 711.341 208.292 711.17 208.474C710.999 208.644 710.781 208.73 710.514 208.73ZM710.514 202.218C710.247 202.218 710.023 202.132 709.842 201.962C709.671 201.78 709.586 201.562 709.586 201.306C709.586 201.05 709.671 200.836 709.842 200.666C710.023 200.484 710.247 200.394 710.514 200.394C710.781 200.394 710.999 200.484 711.17 200.666C711.341 200.836 711.426 201.05 711.426 201.306C711.426 201.562 711.341 201.78 711.17 201.962C710.999 202.132 710.781 202.218 710.514 202.218ZM717.598 208.65V197.45H721.246C722.132 197.45 722.857 197.599 723.422 197.898C723.998 198.186 724.42 198.575 724.686 199.066C724.964 199.556 725.102 200.116 725.102 200.746C725.102 201.354 724.964 201.908 724.686 202.41C724.42 202.9 724.004 203.295 723.438 203.594C722.873 203.892 722.142 204.042 721.246 204.042H718.942V208.65H717.598ZM718.942 202.906H721.23C722.126 202.906 722.766 202.708 723.15 202.314C723.534 201.919 723.726 201.396 723.726 200.746C723.726 200.052 723.534 199.519 723.15 199.146C722.766 198.762 722.126 198.57 721.23 198.57H718.942V202.906ZM726.88 208.65V197.45H730.176C731.488 197.45 732.565 197.679 733.408 198.138C734.261 198.586 734.89 199.231 735.296 200.074C735.712 200.906 735.92 201.908 735.92 203.082C735.92 204.234 735.712 205.226 735.296 206.058C734.89 206.89 734.261 207.53 733.408 207.978C732.565 208.426 731.488 208.65 730.176 208.65H726.88ZM728.224 207.53H730.144C731.232 207.53 732.096 207.354 732.736 207.002C733.376 206.639 733.834 206.127 734.112 205.466C734.389 204.794 734.528 203.999 734.528 203.082C734.528 202.143 734.389 201.338 734.112 200.666C733.834 199.994 733.376 199.476 732.736 199.114C732.096 198.751 731.232 198.57 730.144 198.57H728.224V207.53ZM737.895 208.65V197.45H744.711V198.554H739.239V202.49H743.895V203.578H739.239V208.65H737.895Z" fill="black"/>
<path d="M538.844 171.577C537.164 171.577 535.716 171.217 534.5 170.497C533.3 169.761 532.372 168.745 531.716 167.449C531.076 166.137 530.756 164.625 530.756 162.913C530.756 161.201 531.076 159.689 531.716 158.377C532.372 157.065 533.3 156.041 534.5 155.305C535.716 154.569 537.164 154.201 538.844 154.201C540.876 154.201 542.54 154.705 543.836 155.713C545.132 156.721 545.94 158.145 546.26 159.985H542.732C542.524 159.089 542.084 158.393 541.412 157.897C540.756 157.385 539.892 157.129 538.82 157.129C537.828 157.129 536.972 157.369 536.252 157.849C535.548 158.313 535.004 158.977 534.62 159.841C534.236 160.689 534.044 161.713 534.044 162.913C534.044 164.097 534.236 165.121 534.62 165.985C535.004 166.849 535.548 167.513 536.252 167.977C536.972 168.441 537.828 168.673 538.82 168.673C539.892 168.673 540.756 168.441 541.412 167.977C542.068 167.497 542.5 166.833 542.708 165.985H546.26C545.94 167.729 545.132 169.097 543.836 170.089C542.54 171.081 540.876 171.577 538.844 171.577ZM548.955 171.289V154.009H552.195V160.993C552.595 160.353 553.123 159.849 553.779 159.481C554.451 159.097 555.227 158.905 556.107 158.905C557.115 158.905 557.963 159.121 558.651 159.553C559.339 159.969 559.859 160.577 560.211 161.377C560.563 162.177 560.739 163.169 560.739 164.353V171.289H557.523V164.641C557.523 163.681 557.323 162.945 556.923 162.433C556.523 161.905 555.891 161.641 555.027 161.641C554.499 161.641 554.019 161.769 553.587 162.025C553.155 162.281 552.811 162.657 552.555 163.153C552.315 163.633 552.195 164.209 552.195 164.881V171.289H548.955ZM569.503 171.577C568.351 171.577 567.311 171.313 566.383 170.785C565.471 170.241 564.743 169.497 564.199 168.553C563.671 167.593 563.407 166.497 563.407 165.265C563.407 164.001 563.671 162.897 564.199 161.953C564.743 160.993 565.479 160.249 566.407 159.721C567.335 159.177 568.375 158.905 569.527 158.905C570.695 158.905 571.735 159.177 572.647 159.721C573.575 160.249 574.303 160.993 574.831 161.953C575.375 162.897 575.647 163.993 575.647 165.241C575.647 166.489 575.375 167.593 574.831 168.553C574.303 169.497 573.575 170.241 572.647 170.785C571.719 171.313 570.671 171.577 569.503 171.577ZM569.503 168.769C570.047 168.769 570.527 168.641 570.943 168.385C571.375 168.129 571.711 167.737 571.951 167.209C572.207 166.681 572.335 166.025 572.335 165.241C572.335 164.457 572.207 163.809 571.951 163.297C571.711 162.769 571.375 162.377 570.943 162.121C570.527 161.849 570.055 161.713 569.527 161.713C569.015 161.713 568.543 161.849 568.111 162.121C567.679 162.377 567.335 162.769 567.079 163.297C566.839 163.809 566.719 164.457 566.719 165.241C566.719 166.025 566.839 166.681 567.079 167.209C567.335 167.737 567.671 168.129 568.087 168.385C568.519 168.641 568.991 168.769 569.503 168.769ZM584.151 171.577C582.999 171.577 581.959 171.313 581.031 170.785C580.119 170.241 579.391 169.497 578.847 168.553C578.319 167.593 578.055 166.497 578.055 165.265C578.055 164.001 578.319 162.897 578.847 161.953C579.391 160.993 580.127 160.249 581.055 159.721C581.983 159.177 583.023 158.905 584.175 158.905C585.343 158.905 586.383 159.177 587.295 159.721C588.223 160.249 588.951 160.993 589.479 161.953C590.023 162.897 590.295 163.993 590.295 165.241C590.295 166.489 590.023 167.593 589.479 168.553C588.951 169.497 588.223 170.241 587.295 170.785C586.367 171.313 585.319 171.577 584.151 171.577ZM584.151 168.769C584.695 168.769 585.175 168.641 585.591 168.385C586.023 168.129 586.359 167.737 586.599 167.209C586.855 166.681 586.983 166.025 586.983 165.241C586.983 164.457 586.855 163.809 586.599 163.297C586.359 162.769 586.023 162.377 585.591 162.121C585.175 161.849 584.703 161.713 584.175 161.713C583.663 161.713 583.191 161.849 582.759 162.121C582.327 162.377 581.983 162.769 581.727 163.297C581.487 163.809 581.367 164.457 581.367 165.241C581.367 166.025 581.487 166.681 581.727 167.209C581.983 167.737 582.319 168.129 582.735 168.385C583.167 168.641 583.639 168.769 584.151 168.769ZM598.032 171.577C596.928 171.577 595.968 171.401 595.152 171.049C594.336 170.697 593.696 170.209 593.232 169.585C592.768 168.961 592.504 168.257 592.44 167.473H595.656C595.736 167.777 595.872 168.057 596.064 168.313C596.256 168.553 596.512 168.745 596.832 168.889C597.152 169.033 597.536 169.105 597.984 169.105C598.416 169.105 598.768 169.049 599.04 168.937C599.312 168.809 599.512 168.641 599.64 168.433C599.784 168.225 599.856 168.009 599.856 167.785C599.856 167.449 599.76 167.193 599.568 167.017C599.376 166.825 599.096 166.673 598.728 166.561C598.36 166.449 597.912 166.337 597.384 166.225C596.808 166.113 596.24 165.977 595.68 165.817C595.136 165.641 594.648 165.425 594.216 165.169C593.784 164.913 593.44 164.585 593.184 164.185C592.928 163.785 592.8 163.289 592.8 162.697C592.8 161.977 592.992 161.337 593.376 160.777C593.76 160.201 594.32 159.745 595.056 159.409C595.792 159.073 596.68 158.905 597.72 158.905C599.176 158.905 600.328 159.233 601.176 159.889C602.024 160.545 602.528 161.449 602.688 162.601H599.64C599.544 162.233 599.328 161.945 598.992 161.737C598.672 161.513 598.24 161.401 597.696 161.401C597.12 161.401 596.68 161.505 596.376 161.713C596.072 161.921 595.92 162.193 595.92 162.529C595.92 162.753 596.016 162.953 596.208 163.129C596.416 163.305 596.704 163.457 597.072 163.585C597.44 163.697 597.888 163.809 598.416 163.921C599.344 164.113 600.16 164.337 600.864 164.593C601.568 164.833 602.12 165.185 602.52 165.649C602.92 166.097 603.12 166.753 603.12 167.617C603.12 168.385 602.912 169.073 602.496 169.681C602.08 170.273 601.488 170.737 600.72 171.073C599.968 171.409 599.072 171.577 598.032 171.577ZM611.669 171.577C610.453 171.577 609.373 171.321 608.429 170.809C607.501 170.281 606.773 169.553 606.245 168.625C605.733 167.681 605.477 166.593 605.477 165.361C605.477 164.097 605.733 162.985 606.245 162.025C606.773 161.049 607.501 160.289 608.429 159.745C609.357 159.185 610.437 158.905 611.669 158.905C612.869 158.905 613.917 159.169 614.813 159.697C615.709 160.225 616.405 160.937 616.901 161.833C617.397 162.729 617.645 163.745 617.645 164.881C617.645 165.041 617.645 165.225 617.645 165.433C617.645 165.625 617.629 165.825 617.597 166.033H607.781V164.065H614.381C614.333 163.281 614.053 162.665 613.541 162.217C613.045 161.769 612.421 161.545 611.669 161.545C611.125 161.545 610.621 161.673 610.157 161.929C609.693 162.169 609.325 162.545 609.053 163.057C608.797 163.569 608.669 164.217 608.669 165.001V165.697C608.669 166.353 608.789 166.929 609.029 167.425C609.285 167.905 609.637 168.281 610.085 168.553C610.533 168.809 611.053 168.937 611.645 168.937C612.237 168.937 612.725 168.809 613.109 168.553C613.509 168.297 613.805 167.969 613.997 167.569H617.309C617.085 168.321 616.709 169.001 616.181 169.609C615.653 170.217 615.005 170.697 614.237 171.049C613.469 171.401 612.613 171.577 611.669 171.577ZM626.499 171.289V161.905H624.843V159.193H626.499V158.113C626.499 157.105 626.667 156.305 627.003 155.713C627.339 155.121 627.819 154.689 628.443 154.417C629.083 154.145 629.827 154.009 630.675 154.009H631.995V156.769H631.155C630.659 156.769 630.299 156.873 630.075 157.081C629.851 157.273 629.739 157.609 629.739 158.089V159.193H637.347V171.289H634.107V161.905H629.739V171.289H626.499ZM635.739 157.561C635.163 157.561 634.683 157.385 634.299 157.033C633.931 156.681 633.747 156.241 633.747 155.713C633.747 155.185 633.931 154.753 634.299 154.417C634.683 154.081 635.163 153.913 635.739 153.913C636.331 153.913 636.811 154.081 637.179 154.417C637.563 154.753 637.755 155.185 637.755 155.713C637.755 156.241 637.563 156.681 637.179 157.033C636.811 157.385 636.331 157.561 635.739 157.561ZM640.596 171.289V154.009H643.836V171.289H640.596ZM652.802 171.577C651.586 171.577 650.506 171.321 649.562 170.809C648.634 170.281 647.906 169.553 647.378 168.625C646.866 167.681 646.61 166.593 646.61 165.361C646.61 164.097 646.866 162.985 647.378 162.025C647.906 161.049 648.634 160.289 649.562 159.745C650.49 159.185 651.57 158.905 652.802 158.905C654.002 158.905 655.05 159.169 655.946 159.697C656.842 160.225 657.538 160.937 658.034 161.833C658.53 162.729 658.778 163.745 658.778 164.881C658.778 165.041 658.778 165.225 658.778 165.433C658.778 165.625 658.762 165.825 658.73 166.033H648.914V164.065H655.514C655.466 163.281 655.186 162.665 654.674 162.217C654.178 161.769 653.554 161.545 652.802 161.545C652.258 161.545 651.754 161.673 651.29 161.929C650.826 162.169 650.458 162.545 650.186 163.057C649.93 163.569 649.802 164.217 649.802 165.001V165.697C649.802 166.353 649.922 166.929 650.162 167.425C650.418 167.905 650.77 168.281 651.218 168.553C651.666 168.809 652.186 168.937 652.778 168.937C653.37 168.937 653.858 168.809 654.242 168.553C654.642 168.297 654.938 167.969 655.13 167.569H658.442C658.218 168.321 657.842 169.001 657.314 169.609C656.786 170.217 656.138 170.697 655.37 171.049C654.602 171.401 653.746 171.577 652.802 171.577ZM672.654 171.289C671.934 171.289 671.31 171.177 670.782 170.953C670.254 170.729 669.846 170.353 669.558 169.825C669.286 169.281 669.15 168.553 669.15 167.641V160.897H667.038V159.193H669.15L669.414 156.265H671.166V159.193H674.67V160.897H671.166V167.641C671.166 168.393 671.318 168.905 671.622 169.177C671.926 169.433 672.462 169.561 673.23 169.561H674.526V171.289H672.654ZM682.373 171.577C681.253 171.577 680.245 171.321 679.349 170.809C678.453 170.281 677.749 169.545 677.237 168.601C676.725 167.641 676.469 166.529 676.469 165.265C676.469 163.969 676.725 162.849 677.237 161.905C677.765 160.945 678.477 160.209 679.373 159.697C680.285 159.169 681.301 158.905 682.421 158.905C683.573 158.905 684.589 159.169 685.469 159.697C686.365 160.209 687.069 160.945 687.581 161.905C688.109 162.849 688.373 163.961 688.373 165.241C688.373 166.521 688.109 167.641 687.581 168.601C687.053 169.545 686.341 170.281 685.445 170.809C684.549 171.321 683.525 171.577 682.373 171.577ZM682.397 169.849C683.085 169.849 683.725 169.681 684.317 169.345C684.909 168.993 685.389 168.473 685.757 167.785C686.125 167.097 686.309 166.249 686.309 165.241C686.309 164.217 686.125 163.369 685.757 162.697C685.405 162.009 684.933 161.497 684.341 161.161C683.765 160.809 683.125 160.633 682.421 160.633C681.749 160.633 681.109 160.809 680.501 161.161C679.909 161.497 679.429 162.009 679.061 162.697C678.709 163.369 678.533 164.217 678.533 165.241C678.533 166.249 678.709 167.097 679.061 167.785C679.429 168.473 679.901 168.993 680.477 169.345C681.069 169.681 681.709 169.849 682.397 169.849ZM701.966 171.577C701.038 171.577 700.222 171.393 699.518 171.025C698.83 170.657 698.294 170.089 697.91 169.321C697.542 168.553 697.358 167.593 697.358 166.441V159.193H699.374V166.225C699.374 167.425 699.638 168.329 700.166 168.937C700.694 169.545 701.438 169.849 702.398 169.849C703.07 169.849 703.678 169.689 704.222 169.369C704.766 169.033 705.19 168.561 705.494 167.953C705.814 167.329 705.974 166.569 705.974 165.673V159.193H707.99V171.289H706.166L706.046 169.177C705.678 169.929 705.134 170.521 704.414 170.953C703.694 171.369 702.878 171.577 701.966 171.577ZM711.332 176.569V159.193H713.156L713.324 161.161C713.58 160.777 713.908 160.417 714.308 160.081C714.708 159.729 715.188 159.449 715.748 159.241C716.308 159.017 716.948 158.905 717.668 158.905C718.852 158.905 719.876 159.185 720.74 159.745C721.62 160.305 722.3 161.065 722.78 162.025C723.276 162.969 723.524 164.049 723.524 165.265C723.524 166.481 723.276 167.569 722.78 168.529C722.3 169.473 721.62 170.217 720.74 170.761C719.86 171.305 718.828 171.577 717.644 171.577C716.668 171.577 715.804 171.377 715.052 170.977C714.316 170.577 713.748 170.017 713.348 169.297V176.569H711.332ZM717.428 169.825C718.212 169.825 718.908 169.633 719.516 169.249C720.124 168.865 720.596 168.337 720.932 167.665C721.284 166.977 721.46 166.169 721.46 165.241C721.46 164.329 721.284 163.529 720.932 162.841C720.596 162.153 720.124 161.617 719.516 161.233C718.908 160.849 718.212 160.657 717.428 160.657C716.628 160.657 715.924 160.849 715.316 161.233C714.708 161.617 714.236 162.153 713.9 162.841C713.564 163.529 713.396 164.329 713.396 165.241C713.396 166.169 713.564 166.977 713.9 167.665C714.236 168.337 714.708 168.865 715.316 169.249C715.924 169.633 716.628 169.825 717.428 169.825ZM726.356 171.289V154.009H728.372V171.289H726.356ZM737.099 171.577C735.979 171.577 734.971 171.321 734.075 170.809C733.179 170.281 732.475 169.545 731.963 168.601C731.451 167.641 731.195 166.529 731.195 165.265C731.195 163.969 731.451 162.849 731.963 161.905C732.491 160.945 733.203 160.209 734.099 159.697C735.011 159.169 736.027 158.905 737.147 158.905C738.299 158.905 739.315 159.169 740.195 159.697C741.091 160.209 741.795 160.945 742.307 161.905C742.835 162.849 743.099 163.961 743.099 165.241C743.099 166.521 742.835 167.641 742.307 168.601C741.779 169.545 741.067 170.281 740.171 170.809C739.275 171.321 738.251 171.577 737.099 171.577ZM737.123 169.849C737.811 169.849 738.451 169.681 739.043 169.345C739.635 168.993 740.115 168.473 740.483 167.785C740.851 167.097 741.035 166.249 741.035 165.241C741.035 164.217 740.851 163.369 740.483 162.697C740.131 162.009 739.659 161.497 739.067 161.161C738.491 160.809 737.851 160.633 737.147 160.633C736.475 160.633 735.835 160.809 735.227 161.161C734.635 161.497 734.155 162.009 733.787 162.697C733.435 163.369 733.259 164.217 733.259 165.241C733.259 166.249 733.435 167.097 733.787 167.785C734.155 168.473 734.627 168.993 735.203 169.345C735.795 169.681 736.435 169.849 737.123 169.849ZM749.862 171.577C748.886 171.577 748.07 171.409 747.414 171.073C746.758 170.721 746.27 170.265 745.95 169.705C745.63 169.129 745.47 168.505 745.47 167.833C745.47 167.017 745.678 166.329 746.094 165.769C746.526 165.193 747.126 164.761 747.894 164.473C748.678 164.169 749.598 164.017 750.654 164.017H753.846C753.846 163.265 753.726 162.641 753.486 162.145C753.262 161.633 752.926 161.249 752.478 160.993C752.046 160.737 751.502 160.609 750.846 160.609C750.078 160.609 749.414 160.801 748.854 161.185C748.294 161.569 747.95 162.137 747.822 162.889H745.758C745.854 162.025 746.142 161.305 746.622 160.729C747.118 160.137 747.742 159.689 748.494 159.385C749.246 159.065 750.03 158.905 750.846 158.905C751.966 158.905 752.894 159.113 753.63 159.529C754.382 159.929 754.942 160.497 755.31 161.233C755.678 161.953 755.862 162.809 755.862 163.801V171.289H754.062L753.942 169.153C753.782 169.489 753.574 169.809 753.318 170.113C753.078 170.401 752.79 170.657 752.454 170.881C752.118 171.089 751.734 171.257 751.302 171.385C750.886 171.513 750.406 171.577 749.862 171.577ZM750.174 169.873C750.734 169.873 751.238 169.761 751.686 169.537C752.15 169.297 752.542 168.977 752.862 168.577C753.182 168.161 753.422 167.705 753.582 167.209C753.758 166.713 753.846 166.193 753.846 165.649V165.577H750.822C750.038 165.577 749.406 165.673 748.926 165.865C748.446 166.041 748.102 166.297 747.894 166.633C747.686 166.953 747.582 167.321 747.582 167.737C747.582 168.169 747.678 168.545 747.87 168.865C748.078 169.185 748.374 169.433 748.758 169.609C749.158 169.785 749.63 169.873 750.174 169.873ZM764.309 171.577C763.141 171.577 762.117 171.305 761.237 170.761C760.357 170.201 759.677 169.441 759.197 168.481C758.717 167.521 758.477 166.433 758.477 165.217C758.477 164.001 758.717 162.921 759.197 161.977C759.677 161.017 760.357 160.265 761.237 159.721C762.133 159.177 763.165 158.905 764.333 158.905C765.325 158.905 766.189 159.105 766.925 159.505C767.677 159.905 768.253 160.465 768.653 161.185V154.009H770.669V171.289H768.845L768.677 169.297C768.421 169.697 768.093 170.073 767.693 170.425C767.293 170.761 766.813 171.041 766.253 171.265C765.693 171.473 765.045 171.577 764.309 171.577ZM764.549 169.825C765.349 169.825 766.053 169.633 766.661 169.249C767.269 168.865 767.741 168.337 768.077 167.665C768.413 166.977 768.581 166.169 768.581 165.241C768.581 164.329 768.413 163.529 768.077 162.841C767.741 162.153 767.269 161.617 766.661 161.233C766.053 160.849 765.349 160.657 764.549 160.657C763.765 160.657 763.069 160.849 762.461 161.233C761.853 161.617 761.381 162.153 761.045 162.841C760.709 163.529 760.541 164.329 760.541 165.241C760.541 166.169 760.709 166.977 761.045 167.665C761.381 168.337 761.853 168.865 762.461 169.249C763.069 169.633 763.765 169.825 764.549 169.825Z" fill="#444444"/>
<path d="M649.257 111.227V92.049L643.139 98.167L639.844 94.755L651.61 82.9896L663.375 94.755L660.081 98.167L653.963 92.049V111.227H649.257ZM637.491 120.639C636.197 120.639 635.09 120.179 634.169 119.258C633.248 118.337 632.787 117.229 632.785 115.933V108.874H637.491V115.933H665.728V108.874H670.434V115.933C670.434 117.227 669.974 118.335 669.053 119.258C668.132 120.18 667.024 120.641 665.728 120.639H637.491Z" fill="black"/>
</svg>
